<svg xmlns="http://www.w3.org/2000/svg" width="51.736" height="30.692" viewBox="0 0 51.736 30.692">
    <g>
        <g>
            <g>
                <path fill="none" d="M19.421 16.69h-1.842v-.306a8.11 8.11 0 0 1 1.466-4.768L27.043 0h2.044l-6.1 8.889a9.3 9.3 0 0 1 2.594-.374 7.925 7.925 0 0 1 5.755 2.2 7.616 7.616 0 0 1 2.24 5.671v.305h-1.81v-.306a6.023 6.023 0 0 0-1.7-4.428 6.1 6.1 0 0 0-4.484-1.7 5.818 5.818 0 0 0-6.164 6.13v.306zm32.312 0h-1.808a5.021 5.021 0 0 0-1.715-3.747 6.5 6.5 0 0 0-4.411-1.5h-6.368L38.244 0H50.85v1.7H39.843l-.533 8h4.49a8.428 8.428 0 0 1 5.637 1.959 6.559 6.559 0 0 1 2.295 5.022zm-36.885 0h-1.809a5.021 5.021 0 0 0-1.712-3.747 6.5 6.5 0 0 0-4.411-1.5v-.033l-.033.033H6.4l-.784-1.193 6.033-8.55H0V0h13.725v1.7L7.97 9.912a8.2 8.2 0 0 1 4.937 2.145 6.388 6.388 0 0 1 1.938 4.632z" transform="translate(-9.537 -32) translate(9.537 32)"/>
                <path fill="#61d5df" d="M19.421 16.69h-1.842v-.306a8.11 8.11 0 0 1 1.466-4.768L27.043 0h2.044l-6.1 8.889a9.3 9.3 0 0 1 2.594-.374 7.925 7.925 0 0 1 5.755 2.2 7.616 7.616 0 0 1 2.24 5.671v.305h-1.81v-.306a6.023 6.023 0 0 0-1.7-4.428 6.1 6.1 0 0 0-4.484-1.7 5.818 5.818 0 0 0-6.164 6.13v.306zm32.312 0h-1.808a5.021 5.021 0 0 0-1.715-3.747 6.5 6.5 0 0 0-4.411-1.5h-6.368L38.244 0H50.85v1.7H39.843l-.533 8h4.49a8.428 8.428 0 0 1 5.637 1.959 6.559 6.559 0 0 1 2.295 5.022zm-36.885 0h-1.809a5.021 5.021 0 0 0-1.712-3.747 6.5 6.5 0 0 0-4.411-1.5v-.033l-.033.033H6.4l-.784-1.193 6.033-8.55H0V0h13.725v1.7L7.97 9.912a8.2 8.2 0 0 1 4.937 2.145 6.388 6.388 0 0 1 1.938 4.632z" transform="translate(-9.537 -32) translate(9.537 32)"/>
            </g>
            <path fill="#303856" d="M.763 10.969V3.218H2.9Q7 3.218 7 7a3.807 3.807 0 0 1-1.139 2.88 4.22 4.22 0 0 1-3.05 1.089zm.907-6.93v6.107h1.157A3.282 3.282 0 0 0 5.2 9.331a3.065 3.065 0 0 0 .849-2.313q0-2.978-3.169-2.978zm12.41 6.929H13L11.7 8.8a4.732 4.732 0 0 0-.346-.516 1.972 1.972 0 0 0-.344-.349 1.189 1.189 0 0 0-.378-.2 1.556 1.556 0 0 0-.457-.063H9.43v3.3h-.906V3.218h2.313a3.3 3.3 0 0 1 .933.133 2.1 2.1 0 0 1 .746.386 1.8 1.8 0 0 1 .494.646 2.141 2.141 0 0 1 .179.9 2.18 2.18 0 0 1-.117.737 1.942 1.942 0 0 1-.346.6 2.1 2.1 0 0 1-.541.452 2.76 2.76 0 0 1-.712.29v.021a1.635 1.635 0 0 1 .338.2 1.866 1.866 0 0 1 .267.267 3.473 3.473 0 0 1 .257.344q.133.192.284.446zM9.431 4.039V6.85h1.233a1.866 1.866 0 0 0 .63-.1 1.458 1.458 0 0 0 .5-.294 1.333 1.333 0 0 0 .329-.47 1.574 1.574 0 0 0 .119-.624 1.215 1.215 0 0 0-.4-.97 1.732 1.732 0 0 0-1.169-.349zm8.728 7.061a3.4 3.4 0 0 1-2.64-1.086 4.03 4.03 0 0 1-.991-2.826 4.264 4.264 0 0 1 1.01-2.984 3.53 3.53 0 0 1 2.752-1.112 3.331 3.331 0 0 1 2.586 1.081A4.044 4.044 0 0 1 21.857 7a4.283 4.283 0 0 1-1 3 3.465 3.465 0 0 1-2.692 1.1zm.065-7.2a2.5 2.5 0 0 0-1.984.881 3.41 3.41 0 0 0-.76 2.319 3.434 3.434 0 0 0 .744 2.305 2.424 2.424 0 0 0 1.938.873 2.545 2.545 0 0 0 2.011-.833 3.4 3.4 0 0 0 .736-2.329 3.554 3.554 0 0 0-.713-2.373 2.447 2.447 0 0 0-1.97-.841zm6.064 4.131v2.932h-.907V3.218h2.132a2.81 2.81 0 0 1 1.927.6 2.161 2.161 0 0 1 .684 1.708 2.349 2.349 0 0 1-.76 1.806 2.9 2.9 0 0 1-2.051.7zm0-4v3.186h.951a2.132 2.132 0 0 0 1.435-.429 1.522 1.522 0 0 0 .494-1.214q0-1.535-1.816-1.535zm4.93 6.616V9.589a2.079 2.079 0 0 0 .441.292 3.569 3.569 0 0 0 .541.219 4.3 4.3 0 0 0 .57.133 3.179 3.179 0 0 0 .533.049 2.075 2.075 0 0 0 1.251-.31 1.166 1.166 0 0 0 .276-1.44 1.552 1.552 0 0 0-.381-.424 3.782 3.782 0 0 0-.576-.368q-.332-.176-.716-.37-.4-.205-.757-.416a3.279 3.279 0 0 1-.61-.465 1.939 1.939 0 0 1-.408-.576 1.782 1.782 0 0 1-.149-.754 1.772 1.772 0 0 1 .232-.922 2 2 0 0 1 .61-.646 2.769 2.769 0 0 1 .862-.378 3.947 3.947 0 0 1 .986-.124 3.78 3.78 0 0 1 1.67.276v1.021a3.028 3.028 0 0 0-1.767-.48 2.9 2.9 0 0 0-.594.063 1.679 1.679 0 0 0-.533.2 1.174 1.174 0 0 0-.378.362.961.961 0 0 0-.147.541 1.113 1.113 0 0 0 .111.513 1.258 1.258 0 0 0 .326.4 3.257 3.257 0 0 0 .533.346q.31.168.716.368t.789.432a3.607 3.607 0 0 1 .654.5 2.233 2.233 0 0 1 .446.61 1.716 1.716 0 0 1 .165.768 1.947 1.947 0 0 1-.224.97 1.84 1.84 0 0 1-.6.646 2.644 2.644 0 0 1-.878.36 4.81 4.81 0 0 1-1.049.111 4.272 4.272 0 0 1-.454-.029q-.267-.029-.552-.087a4.5 4.5 0 0 1-.533-.14 1.656 1.656 0 0 1-.4-.189zm12.068.313h-.906V7.433h-4.011v3.535h-.91v-7.75h.907v3.4h4.011v-3.4h.907zm2.94 0h-.906V3.218h.907zm2.946-2.932v2.932h-.907V3.218H48.4a2.81 2.81 0 0 1 1.927.6 2.161 2.161 0 0 1 .684 1.708 2.349 2.349 0 0 1-.76 1.806 2.9 2.9 0 0 1-2.051.7zm0-4v3.189h.951a2.132 2.132 0 0 0 1.435-.429 1.522 1.522 0 0 0 .494-1.214q0-1.535-1.816-1.535z" transform="translate(-9.537 -32) translate(9.537 32) translate(-.462 19.587)"/>
        </g>
    </g>
</svg>
