<svg xmlns="http://www.w3.org/2000/svg" width="32" height="32" fill="none" viewBox="0 0 32 32">
    <path fill="#5EBE84" d="M27.51 20.978c0-1.244.523-2.489 1.22-3.377V7.823c0-1.422-1.045-2.489-2.438-2.489H6.439C5.046 5.334 4 6.578 4 7.823v15.466c0 1.423 1.045 2.49 2.438 2.49h15.847c.349-2.49 2.438-4.623 5.225-4.8zm-7.488-.177h-7.314c-.696 0-1.219-.534-1.219-1.245 0-.71.523-1.244 1.22-1.244h7.313c.697 0 1.22.533 1.22 1.244.174.711-.523 1.245-1.22 1.245zm2.613-7.823H10.27c-.697 0-1.219-.533-1.219-1.244s.522-1.245 1.22-1.245h12.364c.696 0 1.219.534 1.219 1.245 0 .711-.523 1.244-1.22 1.244z"/>
    <path fill="#5EBE84" d="M5.221 20.978c0-1.244-.522-2.489-1.219-3.377V7.823c0-1.422 1.045-2.489 2.438-2.489h19.853c1.393 0 2.438 1.244 2.438 2.489v15.466c0 1.423-1.045 2.49-2.438 2.49H10.446c-.349-2.49-2.438-4.623-5.225-4.8zm7.489-.177h7.314c.696 0 1.219-.534 1.219-1.245 0-.71-.523-1.244-1.22-1.244H12.71c-.697 0-1.22.533-1.22 1.244-.174.711.523 1.245 1.22 1.245zm-2.613-7.823h12.365c.696 0 1.219-.533 1.219-1.244s-.523-1.245-1.22-1.245H10.098c-.696 0-1.219.534-1.219 1.245 0 .711.523 1.244 1.22 1.244z"/>
</svg>
