<svg xmlns="http://www.w3.org/2000/svg" width="24" height="24" fill="none" viewBox="0 0 24 24">
    <path fill="#D8D8D8" stroke="#979797" d="M0.5 0.5H23.5V23.5H0.5z" opacity=".01"/>
    <path fill="#2E3537" fill-rule="evenodd" d="M5.404 5h13.167c1.175 0 2.13.959 2.127 2.134v8.996c0 1.175-.956 2.13-2.13 2.13H5.403c-1.175 0-2.13-.955-2.13-2.13v-9c0-1.175.955-2.13 2.13-2.13zm13.167 12.287c.638 0 1.157-.52 1.157-1.157h-.004V7.134c0-.638-.519-1.157-1.157-1.157H5.404c-.638 0-1.157.52-1.157 1.157v8.996c0 .638.519 1.157 1.157 1.157h13.167zm-.047-9.59l-4.262 3.821 4.28 4.064c.195.183.202.494.018.688-.097.101-.223.152-.353.152-.12 0-.242-.044-.336-.134l-4.333-4.117-1.215 1.089c-.09.083-.21.126-.325.126-.115 0-.23-.04-.324-.123l-1.183-1.056-4.359 4.078c-.093.086-.212.13-.331.13-.13 0-.26-.055-.357-.156-.184-.198-.173-.504.021-.688l4.294-4.02-4.312-3.854c-.201-.18-.22-.487-.04-.689.181-.202.488-.22.69-.04l4.665 4.175c.028.022.054.044.079.069 0 .004.004.007.007.01l1.147 1.025 5.876-5.275c.202-.18.509-.162.689.036.18.202.162.509-.036.689z" clip-rule="evenodd"/>
</svg>
