<svg xmlns="http://www.w3.org/2000/svg" width="206" height="205" fill="none" viewBox="0 0 206 205">
    <path fill="#FBDCA9" fill-rule="evenodd" d="M205.389 102.5c0 56.609-45.891 102.5-102.5 102.5-56.61 0-102.5-45.891-102.5-102.5C.389 45.89 46.279 0 102.889 0c56.609 0 102.5 45.89 102.5 102.5" clip-rule="evenodd" opacity=".2"/>
    <path fill="#E1E1E1" fill-rule="evenodd" d="M79.44 31.303H24.828c-3.815 0-6.935 3.12-6.935 6.935v8.976c-.501.159-.869.623-.869 1.175v15.105c0 .552.368 1.017.869 1.176v5.141c-.483.034-.869.434-.869.925v8.058c0 .491.386.892.869.925v89.284c0 3.814 3.12 6.935 6.935 6.935h54.614c3.814 0 6.935-3.121 6.935-6.935V38.238c0-3.814-3.121-6.935-6.936-6.935" clip-rule="evenodd"/>
    <path fill="#ECECEC" fill-rule="evenodd" d="M27.202 175.939h54.614c3.815 0 6.935-3.121 6.935-6.936V38.239c0-3.815-3.12-6.936-6.935-6.936H27.202c-3.814 0-6.935 3.12-6.935 6.936v130.764c0 3.815 3.121 6.936 6.935 6.936" clip-rule="evenodd"/>
    <path fill="#E1E1E1" fill-rule="evenodd" d="M51.423 169.315c0 1.704 1.381 3.086 3.086 3.086 1.705 0 3.087-1.382 3.087-3.086 0-1.705-1.382-3.086-3.087-3.086-1.705 0-3.086 1.381-3.086 3.086" clip-rule="evenodd"/>
    <path fill="#FAFAFA" fill-rule="evenodd" d="M20.267 163.567H88.75V39.273H20.267v124.294z" clip-rule="evenodd"/>
    <path fill="#E7E7E7" fill-rule="evenodd" d="M69.66 125.128H52.48c-.995 0-1.786-.814-1.786-1.786 0-.994.791-1.809 1.785-1.809h17.182c.994 0 1.785.815 1.785 1.809 0 .972-.79 1.786-1.785 1.786m0 7.55H40.633c-.972 0-1.786-.791-1.786-1.785 0-.996.814-1.787 1.786-1.787H69.66c.995 0 1.786.791 1.786 1.787 0 .994-.79 1.785-1.785 1.785m0 7.551H56.21c-.973 0-1.786-.791-1.786-1.787 0-.994.813-1.785 1.786-1.785h13.45c.995 0 1.786.791 1.786 1.785 0 .996-.79 1.787-1.785 1.787m-32.644-16.887c0-.994.814-1.809 1.809-1.809h7.776c.995 0 1.786.815 1.786 1.809 0 .972-.791 1.786-1.786 1.786h-7.776c-.995 0-1.81-.814-1.81-1.786m34.566-7.438H37.785c-3.549 0-6.465 2.917-6.465 6.466v17.452c0 3.549 2.916 6.465 6.465 6.465h24.8l-.182 6.104 6.262-6.104h2.917c3.549 0 6.466-2.916 6.466-6.465V122.37c0-3.549-2.917-6.466-6.466-6.466M54.424 82.631c-4.453 0-8.06-3.61-8.06-8.064 0-4.453 3.607-8.06 8.06-8.06s8.065 3.607 8.065 8.06-3.612 8.064-8.065 8.064m0-27.414c-10.684 0-19.35 8.665-19.35 19.35 0 9.166 6.375 16.844 14.932 18.84l4.418 5.625 4.418-5.624h.002c8.553-2 14.93-9.678 14.93-18.841 0-10.685-8.665-19.35-19.35-19.35" clip-rule="evenodd"/>
    <path fill="#E1E1E1" fill-rule="evenodd" d="M62.367 34.97c0-.602-.489-1.091-1.092-1.091-.602 0-1.091.489-1.091 1.092 0 .603.489 1.092 1.091 1.092.603 0 1.092-.489 1.092-1.092M57.504 33.879h-9.07c-.6 0-1.091.491-1.091 1.092 0 .6.49 1.091 1.091 1.091h9.07c.6 0 1.092-.49 1.092-1.091 0-.6-.492-1.092-1.092-1.092M119.78 30.459h68.966c3.132 0 5.694 2.563 5.694 5.694v134.091c0 3.132-2.562 5.694-5.694 5.694H119.78c-3.132 0-5.694-2.562-5.694-5.694V36.154c0-3.133 2.562-5.695 5.694-5.695" clip-rule="evenodd"/>
    <path fill="#ECECEC" fill-rule="evenodd" d="M118.317 30.459h68.966c3.132 0 5.694 2.563 5.694 5.694v134.091c0 3.132-2.562 5.694-5.694 5.694h-68.966c-3.132 0-5.695-2.562-5.695-5.694V36.154c0-3.133 2.563-5.695 5.695-5.695" clip-rule="evenodd"/>
    <path fill="#FAFAFA" fill-rule="evenodd" d="M187.283 172.142c1.029 0 1.898-.87 1.898-1.899V39.273c0-1.03-.869-1.898-1.898-1.898h-68.966c-1.029 0-1.898.869-1.898 1.898v130.97c0 1.029.869 1.899 1.898 1.899h68.966z" clip-rule="evenodd"/>
    <path fill="#E7E7E7" fill-rule="evenodd" d="M165.413 109.437c-3.456 0-6.527 1.645-8.477 4.193l-9.997-5.998c.618-1.351.965-2.85.965-4.432 0-1.582-.347-3.082-.965-4.432l9.997-5.998c1.95 2.548 5.021 4.193 8.477 4.193 5.892 0 10.669-4.777 10.669-10.67s-4.777-10.67-10.669-10.67c-5.893 0-10.67 4.777-10.67 10.67 0 1.582.347 3.082.964 4.432l-9.996 5.998c-1.95-2.548-5.02-4.193-8.476-4.193-5.893 0-10.67 4.777-10.67 10.67 0 5.892 4.777 10.669 10.67 10.669 3.456 0 6.526-1.644 8.476-4.192l9.996 5.998c-.617 1.35-.964 2.85-.964 4.432 0 5.892 4.777 10.67 10.67 10.67 5.892 0 10.669-4.778 10.669-10.67 0-5.893-4.777-10.67-10.669-10.67" clip-rule="evenodd"/>
    <path fill="#fff" fill-rule="evenodd" d="M154.613 34.146c0 1.002-.812 1.813-1.813 1.813-1.002 0-1.814-.812-1.814-1.813 0-1.002.812-1.814 1.814-1.814 1.001 0 1.813.812 1.813 1.814" clip-rule="evenodd"/>
    <path fill="#5DBD83" fill-rule="evenodd" d="M129.642 143.207c.281-.591.03-1.3-.56-1.582L49.356 103.62l79.726-38.005c.59-.282.841-.991.56-1.582-.203-.426-.629-.676-1.073-.676-.171 0-.344.038-.509.116L46.088 102.55c-.41.196-.676.616-.676 1.071 0 .455.266.876.676 1.071l81.972 39.076c.163.078.333.117.508.117.363 0 .836-.178 1.074-.677M162.886 85.156l-.342-.33c1.388-1.433 2.66-2.995 3.779-4.642l.392.266c-1.134 1.67-2.423 3.253-3.829 4.706" clip-rule="evenodd"/>
    <path fill="#5DBD83" fill-rule="evenodd" d="M171.059 60.903c0 18.346-14.872 33.218-33.217 33.218-18.346 0-33.218-14.872-33.218-33.218 0-18.346 14.872-33.218 33.218-33.218 18.345 0 33.217 14.872 33.217 33.218" clip-rule="evenodd"/>
    <path fill="#fff" fill-rule="evenodd" d="M168.101 60.902c0 16.712-13.547 30.26-30.26 30.26-16.711 0-30.259-13.548-30.259-30.26 0-16.711 13.548-30.26 30.259-30.26 16.713 0 30.26 13.549 30.26 30.26" clip-rule="evenodd"/>
    <mask id="ugj2fw0jka" width="62" height="62" x="107" y="30" maskUnits="userSpaceOnUse">
        <path fill="#fff" fill-rule="evenodd" d="M107.582 60.904c0 16.712 13.548 30.26 30.26 30.26 16.712 0 30.259-13.548 30.259-30.26 0-16.711-13.547-30.26-30.259-30.26s-30.26 13.549-30.26 30.26" clip-rule="evenodd"/>
    </mask>
    <g mask="url(#ugj2fw0jka)">
        <path fill="#1A2E35" fill-rule="evenodd" d="M138.541 75.494s9.333 1.95 14.41 1.159c5.076-.791 4.492-7.593.458-10.994-4.033-3.4-3.084-2.61-2.135-6.169.949-3.559-1.186-6.406-5.245-6.564-4.058-.158-.133-5.22-4.282-10.876-4.15-5.655-11.511-1.383-12.041 1.148-2.317.079-4.741 3.85-3.015 7.264 1.727 3.413-.488 4.304-1.833 8.406-1.344 4.102 4.067 4.893 2.864 7.661-1.203 2.768-1.282 11.92 10.819 8.965" clip-rule="evenodd"/>
    </g>
    <mask id="3laurx8fmb" width="62" height="62" x="107" y="30" maskUnits="userSpaceOnUse">
        <path fill="#fff" fill-rule="evenodd" d="M107.582 60.904c0 16.712 13.548 30.26 30.26 30.26 16.712 0 30.259-13.548 30.259-30.26 0-16.711-13.547-30.26-30.259-30.26s-30.26 13.549-30.26 30.26z" clip-rule="evenodd"/>
    </mask>
    <g mask="url(#3laurx8fmb)">
        <path fill="#FFB770" fill-rule="evenodd" d="M129.48 68.463c-.082 1.44-.251 2.757-.439 4.125-.193 1.354-.447 2.7-.74 4.04-.3 1.341-.617 2.68-1.04 4.003-.401 1.325-.876 2.641-1.438 3.934l-.435.966c-.061.148-.179.362-.272.543-.099.187-.205.352-.308.528-.42.674-.882 1.25-1.35 1.8-.936 1.096-1.936 2.056-2.957 2.971-2.067 1.808-4.196 3.435-6.487 4.91l-1.318-1.7c.929-.9 1.874-1.827 2.787-2.754.923-.92 1.817-1.866 2.673-2.823.86-.95 1.679-1.927 2.392-2.906.354-.489.673-.988.926-1.456.055-.116.122-.234.169-.344.048-.12.091-.196.149-.358l.332-.868c.857-2.332 1.465-4.81 1.961-7.313.251-1.253.43-2.525.62-3.792.183-1.258.328-2.573.439-3.778l4.336.272z" clip-rule="evenodd"/>
    </g>
    <mask id="c553p83p4c" width="62" height="62" x="107" y="30" maskUnits="userSpaceOnUse">
        <path fill="#fff" fill-rule="evenodd" d="M107.582 60.904c0 16.712 13.548 30.26 30.26 30.26 16.712 0 30.259-13.548 30.259-30.26 0-16.711-13.547-30.26-30.259-30.26s-30.26 13.549-30.26 30.26" clip-rule="evenodd"/>
    </mask>
    <g mask="url(#c553p83p4c)">
        <path fill="#FEC5A4" fill-rule="evenodd" d="M126.522 63.285c-1.751.446-2.977 7.654-2.977 7.654l4.827 3.282s4.628-7.271 3.28-9.197c-1.403-2.005-2.574-2.39-5.13-1.74" clip-rule="evenodd"/>
    </g>
    <mask id="m1xz3f3nbd" width="62" height="62" x="107" y="30" maskUnits="userSpaceOnUse">
        <path fill="#fff" fill-rule="evenodd" d="M107.582 60.904c0 16.712 13.548 30.26 30.26 30.26 16.712 0 30.259-13.548 30.259-30.26 0-16.711-13.547-30.26-30.259-30.26s-30.26 13.549-30.26 30.26" clip-rule="evenodd"/>
    </mask>
    <g mask="url(#m1xz3f3nbd)">
        <path fill="#fff" fill-rule="evenodd" d="M126.522 63.285c-1.751.446-2.977 7.654-2.977 7.654l4.827 3.282s4.628-7.271 3.28-9.197c-1.403-2.005-2.574-2.39-5.13-1.74" clip-rule="evenodd"/>
    </g>
    <mask id="h1fdlr45oe" width="62" height="62" x="107" y="30" maskUnits="userSpaceOnUse">
        <path fill="#fff" fill-rule="evenodd" d="M107.582 60.904c0 16.712 13.548 30.26 30.26 30.26 16.712 0 30.259-13.548 30.259-30.26 0-16.711-13.547-30.26-30.259-30.26s-30.26 13.549-30.26 30.26z" clip-rule="evenodd"/>
    </mask>
    <g mask="url(#h1fdlr45oe)">
        <path fill="#000" fill-rule="evenodd" d="M126.68 64.894l-1.345 7.266 2.712 1.84-1.367-9.106z" clip-rule="evenodd"/>
    </g>
    <mask id="d81a6jf7jf" width="62" height="62" x="107" y="30" maskUnits="userSpaceOnUse">
        <path fill="#fff" fill-rule="evenodd" d="M107.582 60.904c0 16.712 13.548 30.26 30.26 30.26 16.712 0 30.259-13.548 30.259-30.26 0-16.711-13.547-30.26-30.259-30.26s-30.26 13.549-30.26 30.26" clip-rule="evenodd"/>
    </mask>
    <g mask="url(#d81a6jf7jf)">
        <path fill="#FEC5A4" fill-rule="evenodd" d="M126.522 63.283s-2.024.714 2.031 25.65h17.26c-.289-7.024-.297-11.356 3.06-25.773 0 0-3.616-.786-7.329-.965-2.905-.14-5.285-.233-7.838 0-3.366.307-7.184 1.088-7.184 1.088" clip-rule="evenodd"/>
    </g>
    <mask id="5qo2i7je5g" width="62" height="62" x="107" y="30" maskUnits="userSpaceOnUse">
        <path fill="#fff" fill-rule="evenodd" d="M107.582 60.904c0 16.712 13.548 30.26 30.26 30.26 16.712 0 30.259-13.548 30.259-30.26 0-16.711-13.547-30.26-30.259-30.26s-30.26 13.549-30.26 30.26" clip-rule="evenodd"/>
    </mask>
    <g mask="url(#5qo2i7je5g)">
        <path fill="#fff" fill-rule="evenodd" d="M126.522 63.283s-2.024.714 2.031 25.65h17.26c-.289-7.024-.297-11.356 3.06-25.773 0 0-3.616-.786-7.329-.965-2.905-.14-5.285-.233-7.838 0-3.366.307-7.184 1.088-7.184 1.088" clip-rule="evenodd"/>
    </g>
    <mask id="7mdhpmwc9h" width="62" height="62" x="107" y="30" maskUnits="userSpaceOnUse">
        <path fill="#fff" fill-rule="evenodd" d="M107.582 60.904c0 16.712 13.548 30.26 30.26 30.26 16.712 0 30.259-13.548 30.259-30.26 0-16.711-13.547-30.26-30.259-30.26s-30.26 13.549-30.26 30.26z" clip-rule="evenodd"/>
    </mask>
    <g mask="url(#7mdhpmwc9h)">
        <path fill="#FFB770" fill-rule="evenodd" d="M140.767 53.37c-.495 2.52-.988 7.141.776 8.824 0 0-.689 2.558-5.375 2.558-5.152 0-2.462-2.557-2.462-2.557 2.812-.672 2.739-2.758 2.25-4.718l4.811-4.108z" clip-rule="evenodd"/>
    </g>
    <mask id="yvgqqbgmvi" width="62" height="62" x="107" y="30" maskUnits="userSpaceOnUse">
        <path fill="#fff" fill-rule="evenodd" d="M107.582 60.904c0 16.712 13.548 30.26 30.26 30.26 16.712 0 30.259-13.548 30.259-30.26 0-16.711-13.547-30.26-30.259-30.26s-30.26 13.549-30.26 30.26" clip-rule="evenodd"/>
    </mask>
    <g mask="url(#yvgqqbgmvi)">
        <path fill="#FFB770" fill-rule="evenodd" d="M141.542 62.197c-2.906-.143-5.283-.236-7.836 0l-.511.05c-1.057 1.228.241 2.785 1.336 3.888 0 0 6.253-.973 8.043-3.872-.341-.027-.686-.05-1.032-.066" clip-rule="evenodd"/>
    </g>
    <mask id="wofuva9cwj" width="62" height="62" x="107" y="30" maskUnits="userSpaceOnUse">
        <path fill="#fff" fill-rule="evenodd" d="M107.582 60.904c0 16.712 13.548 30.26 30.26 30.26 16.712 0 30.259-13.548 30.259-30.26 0-16.711-13.547-30.26-30.259-30.26s-30.26 13.549-30.26 30.26" clip-rule="evenodd"/>
    </mask>
    <g mask="url(#wofuva9cwj)">
        <path fill="#000" fill-rule="evenodd" d="M138.805 55.047l-2.847 2.43c.117.463.209.933.241 1.39 1.295 0 2.427-.906 2.881-2.398.164-.54-.183-1.16-.275-1.422" clip-rule="evenodd"/>
    </g>
    <mask id="hbg76yghsk" width="62" height="62" x="107" y="30" maskUnits="userSpaceOnUse">
        <path fill="#fff" fill-rule="evenodd" d="M107.582 60.904c0 16.712 13.548 30.26 30.26 30.26 16.712 0 30.259-13.548 30.259-30.26 0-16.711-13.547-30.26-30.259-30.26s-30.26 13.549-30.26 30.26" clip-rule="evenodd"/>
    </mask>
    <g mask="url(#hbg76yghsk)">
        <path fill="#FFB770" fill-rule="evenodd" d="M140.91 46.662c.893 4.123 1.359 5.848-.102 8.504-2.197 3.997-7.456 4.192-9.562.419-1.896-3.395-3.037-9.566.475-12.296 3.46-2.69 8.296-.749 9.189 3.373" clip-rule="evenodd"/>
    </g>
    <mask id="jviiplstul" width="62" height="62" x="107" y="30" maskUnits="userSpaceOnUse">
        <path fill="#fff" fill-rule="evenodd" d="M107.582 60.904c0 16.712 13.548 30.26 30.26 30.26 16.712 0 30.259-13.548 30.259-30.26 0-16.711-13.547-30.26-30.259-30.26s-30.26 13.549-30.26 30.26" clip-rule="evenodd"/>
    </mask>
    <g mask="url(#jviiplstul)">
        <path fill="#1A2E35" fill-rule="evenodd" d="M134.751 49.56c.093.33-.007.647-.222.707-.216.061-.466-.157-.559-.487-.093-.33.006-.647.222-.707.216-.061.466.157.559.487" clip-rule="evenodd"/>
    </g>
    <mask id="4dnvfy499m" width="62" height="62" x="107" y="30" maskUnits="userSpaceOnUse">
        <path fill="#fff" fill-rule="evenodd" d="M107.582 60.904c0 16.712 13.548 30.26 30.26 30.26 16.712 0 30.259-13.548 30.259-30.26 0-16.711-13.547-30.26-30.259-30.26s-30.26 13.549-30.26 30.26" clip-rule="evenodd"/>
    </mask>
    <g mask="url(#4dnvfy499m)">
        <path fill="#1A2E35" fill-rule="evenodd" d="M131.021 50.61c.094.33-.006.648-.222.708-.215.061-.466-.157-.559-.487-.093-.33.007-.647.222-.708.216-.06.466.158.559.488" clip-rule="evenodd"/>
    </g>
    <mask id="g3f74s6pin" width="62" height="62" x="107" y="30" maskUnits="userSpaceOnUse">
        <path fill="#fff" fill-rule="evenodd" d="M107.582 60.904c0 16.712 13.548 30.26 30.26 30.26 16.712 0 30.259-13.548 30.259-30.26 0-16.711-13.547-30.26-30.259-30.26s-30.26 13.549-30.26 30.26" clip-rule="evenodd"/>
    </mask>
    <g mask="url(#g3f74s6pin)">
        <path fill="#1A2E35" fill-rule="evenodd" d="M130.563 50.114l-.857-.005s.581.504.857.005" clip-rule="evenodd"/>
    </g>
    <mask id="z5heibwhro" width="62" height="62" x="107" y="30" maskUnits="userSpaceOnUse">
        <path fill="#fff" fill-rule="evenodd" d="M107.582 60.904c0 16.712 13.548 30.26 30.26 30.26 16.712 0 30.259-13.548 30.259-30.26 0-16.711-13.547-30.26-30.259-30.26s-30.26 13.549-30.26 30.26z" clip-rule="evenodd"/>
    </mask>
    <g mask="url(#z5heibwhro)">
        <path fill="#FF8A35" fill-rule="evenodd" d="M132.339 50.88s-.16 1.58-.583 2.438c.55.284 1.238-.11 1.238-.11l-.655-2.327z" clip-rule="evenodd"/>
    </g>
    <mask id="2j3c2n3dyp" width="62" height="62" x="107" y="30" maskUnits="userSpaceOnUse">
        <path fill="#fff" fill-rule="evenodd" d="M107.582 60.904c0 16.712 13.548 30.26 30.26 30.26 16.712 0 30.259-13.548 30.259-30.26 0-16.711-13.547-30.26-30.259-30.26s-30.26 13.549-30.26 30.26" clip-rule="evenodd"/>
    </mask>
    <g mask="url(#2j3c2n3dyp)">
        <path fill="#1A2E35" fill-rule="evenodd" d="M135.158 53.992c-.146.067-.304.125-.476.174-.054.015-.109-.016-.125-.07-.015-.053.016-.112.07-.123 1.448-.411 1.839-1.61 1.843-1.623.017-.053.073-.083.126-.066.053.017.083.073.066.126-.015.048-.341 1.053-1.504 1.582" clip-rule="evenodd"/>
    </g>
    <mask id="pl5fquujkq" width="62" height="62" x="107" y="30" maskUnits="userSpaceOnUse">
        <path fill="#fff" fill-rule="evenodd" d="M107.582 60.904c0 16.712 13.548 30.26 30.26 30.26 16.712 0 30.259-13.548 30.259-30.26 0-16.711-13.547-30.26-30.259-30.26s-30.26 13.549-30.26 30.26" clip-rule="evenodd"/>
    </mask>
    <g mask="url(#pl5fquujkq)">
        <path fill="#1A2E35" fill-rule="evenodd" d="M130.631 43.81c-.904 1.03 8.913 6.314 10.912 5.362 2-.952.201-6.231-2.33-7.378-2.531-1.147-5.854-1.088-8.582 2.017" clip-rule="evenodd"/>
    </g>
    <mask id="3xjafq9y5r" width="62" height="62" x="107" y="30" maskUnits="userSpaceOnUse">
        <path fill="#fff" fill-rule="evenodd" d="M107.582 60.904c0 16.712 13.548 30.26 30.26 30.26 16.712 0 30.259-13.548 30.259-30.26 0-16.711-13.547-30.26-30.259-30.26s-30.26 13.549-30.26 30.26" clip-rule="evenodd"/>
    </mask>
    <g mask="url(#3xjafq9y5r)">
        <path fill="#FFB770" fill-rule="evenodd" d="M143.055 50.07c-.066.872-.528 1.632-1.08 2.092-.83.692-1.686.056-1.825-.96-.124-.912.158-2.373 1.169-2.671.996-.295 1.811.542 1.736 1.539" clip-rule="evenodd"/>
    </g>
    <mask id="0tytc63s3s" width="62" height="62" x="107" y="30" maskUnits="userSpaceOnUse">
        <path fill="#fff" fill-rule="evenodd" d="M107.582 60.904c0 16.712 13.548 30.26 30.26 30.26 16.712 0 30.259-13.548 30.259-30.26 0-16.711-13.547-30.26-30.259-30.26s-30.26 13.549-30.26 30.26" clip-rule="evenodd"/>
    </mask>
    <g mask="url(#0tytc63s3s)">
        <path fill="#1A2E35" fill-rule="evenodd" d="M136.034 48.379c-.077.035-.171.019-.232-.047-.629-.686-1.82-.542-1.832-.54-.11.014-.211-.064-.226-.174-.014-.11.063-.211.175-.225.056-.008 1.41-.172 2.18.666.075.083.069.21-.012.285-.016.015-.034.026-.053.035" clip-rule="evenodd"/>
    </g>
    <mask id="2qkfw18jwt" width="62" height="62" x="107" y="30" maskUnits="userSpaceOnUse">
        <path fill="#fff" fill-rule="evenodd" d="M107.582 60.904c0 16.712 13.548 30.26 30.26 30.26 16.712 0 30.259-13.548 30.259-30.26 0-16.711-13.547-30.26-30.259-30.26s-30.26 13.549-30.26 30.26" clip-rule="evenodd"/>
    </mask>
    <g mask="url(#2qkfw18jwt)">
        <path fill="#1A2E35" fill-rule="evenodd" d="M129.416 49.203c-.063.028-.139.024-.199-.018-.091-.063-.114-.189-.051-.28.635-.915 1.565-.898 1.604-.897.111.003.199.096.195.207-.003.111-.095.197-.206.195-.037 0-.758-.002-1.262.725-.021.03-.05.053-.081.068" clip-rule="evenodd"/>
    </g>
    <mask id="o6cpd8dyku" width="62" height="62" x="107" y="30" maskUnits="userSpaceOnUse">
        <path fill="#fff" fill-rule="evenodd" d="M107.582 60.904c0 16.712 13.548 30.26 30.26 30.26 16.712 0 30.259-13.548 30.259-30.26 0-16.711-13.547-30.26-30.259-30.26s-30.26 13.549-30.26 30.26z" clip-rule="evenodd"/>
    </mask>
    <g mask="url(#o6cpd8dyku)">
        <path fill="#FFB770" fill-rule="evenodd" d="M150.738 67.703c1.014 2.472 1.844 4.913 2.554 7.459.714 2.533 1.296 5.126 1.539 7.874.03.344.038.7.057 1.048l.011.263c.004.09.011.16.007.298l-.012.365-.033.323c-.098.84-.293 1.513-.496 2.184-.408 1.326-.91 2.546-1.436 3.75-1.066 2.4-2.262 4.683-3.598 6.923l-1.944-.925c.828-2.388 1.664-4.798 2.409-7.177.366-1.187.713-2.382.965-3.525.119-.563.216-1.14.232-1.573l.005-.155-.009-.113c.002-.023-.009-.112-.017-.18l-.023-.215c-.034-.288-.055-.572-.098-.862-.342-2.332-.973-4.723-1.693-7.091-.732-2.356-1.572-4.75-2.442-7.027l4.022-1.644z" clip-rule="evenodd"/>
    </g>
    <mask id="snuarfwa0v" width="62" height="62" x="107" y="30" maskUnits="userSpaceOnUse">
        <path fill="#fff" fill-rule="evenodd" d="M107.582 60.904c0 16.712 13.548 30.26 30.26 30.26 16.712 0 30.259-13.548 30.259-30.26 0-16.711-13.547-30.26-30.259-30.26s-30.26 13.549-30.26 30.26" clip-rule="evenodd"/>
    </mask>
    <g mask="url(#snuarfwa0v)">
        <path fill="#FEC5A4" fill-rule="evenodd" d="M148.873 63.161c1.729.526 3.806 6.48 3.806 6.48l-6.709 4.797s-2.447-4.97-1.72-7.206c.757-2.327 2.65-4.67 4.623-4.07" clip-rule="evenodd"/>
    </g>
    <mask id="pe0u7x55hw" width="62" height="62" x="107" y="30" maskUnits="userSpaceOnUse">
        <path fill="#fff" fill-rule="evenodd" d="M107.582 60.904c0 16.712 13.548 30.26 30.26 30.26 16.712 0 30.259-13.548 30.259-30.26 0-16.711-13.547-30.26-30.259-30.26s-30.26 13.549-30.26 30.26" clip-rule="evenodd"/>
    </mask>
    <g mask="url(#pe0u7x55hw)">
        <path fill="#fff" fill-rule="evenodd" d="M148.873 63.161c1.729.526 3.806 6.48 3.806 6.48l-6.709 4.797s-2.447-4.97-1.72-7.206c.757-2.327 2.65-4.67 4.623-4.07" clip-rule="evenodd"/>
    </g>
    <mask id="ilf4b1d6qx" width="62" height="62" x="107" y="30" maskUnits="userSpaceOnUse">
        <path fill="#fff" fill-rule="evenodd" d="M107.582 60.904c0 16.712 13.548 30.26 30.26 30.26 16.712 0 30.259-13.548 30.259-30.26 0-16.711-13.547-30.26-30.259-30.26s-30.26 13.549-30.26 30.26" clip-rule="evenodd"/>
    </mask>
    <g mask="url(#ilf4b1d6qx)">
        <path fill="#1A2E35" fill-rule="evenodd" d="M134.292 49.063l-.857-.005s.582.504.857.005" clip-rule="evenodd"/>
    </g>
    <mask id="j6jgbrlzmy" width="62" height="62" x="107" y="30" maskUnits="userSpaceOnUse">
        <path fill="#fff" fill-rule="evenodd" d="M107.582 60.904c0 16.712 13.548 30.26 30.26 30.26 16.712 0 30.259-13.548 30.259-30.26 0-16.711-13.547-30.26-30.259-30.26s-30.26 13.549-30.26 30.26" clip-rule="evenodd"/>
    </mask>
    <g mask="url(#j6jgbrlzmy)">
        <path fill="#1A2E35" fill-rule="evenodd" d="M146.072 87.92l.441 1.546c.06.12-.082.242-.281.242h-17.764c-.156 0-.284-.077-.294-.174l-.156-1.546c-.011-.106.124-.197.294-.197h17.479c.128 0 .242.052.281.13" clip-rule="evenodd"/>
    </g>
    <mask id="s1i8dsedhz" width="62" height="62" x="107" y="30" maskUnits="userSpaceOnUse">
        <path fill="#fff" fill-rule="evenodd" d="M107.582 60.904c0 16.712 13.548 30.26 30.26 30.26 16.712 0 30.259-13.548 30.259-30.26 0-16.711-13.547-30.26-30.259-30.26s-30.26 13.549-30.26 30.26" clip-rule="evenodd"/>
    </mask>
    <g mask="url(#s1i8dsedhz)">
        <path fill="#5DBD83" fill-rule="evenodd" d="M143.724 89.875h.469c.093 0 .164-.048.157-.107l-.22-2.007c-.006-.059-.087-.107-.18-.107h-.469c-.093 0-.164.048-.157.107l.219 2.007c.007.06.088.107.181.107" clip-rule="evenodd"/>
    </g>
    <mask id="07bpros9lA" width="62" height="62" x="107" y="30" maskUnits="userSpaceOnUse">
        <path fill="#fff" fill-rule="evenodd" d="M107.582 60.904c0 16.712 13.548 30.26 30.26 30.26 16.712 0 30.259-13.548 30.259-30.26 0-16.711-13.547-30.26-30.259-30.26s-30.26 13.549-30.26 30.26" clip-rule="evenodd"/>
    </mask>
    <g mask="url(#07bpros9lA)">
        <path fill="#5DBD83" fill-rule="evenodd" d="M129.784 89.875h.468c.093 0 .164-.048.157-.107l-.219-2.007c-.006-.059-.088-.107-.181-.107h-.468c-.093 0-.165.048-.158.107l.219 2.007c.007.06.088.107.182.107" clip-rule="evenodd"/>
    </g>
    <mask id="pfp5sjmzpB" width="62" height="62" x="107" y="30" maskUnits="userSpaceOnUse">
        <path fill="#fff" fill-rule="evenodd" d="M107.582 60.904c0 16.712 13.548 30.26 30.26 30.26 16.712 0 30.259-13.548 30.259-30.26 0-16.711-13.547-30.26-30.259-30.26s-30.26 13.549-30.26 30.26" clip-rule="evenodd"/>
    </mask>
    <g mask="url(#pfp5sjmzpB)">
        <path fill="#5DBD83" fill-rule="evenodd" d="M136.754 89.875h.468c.093 0 .165-.048.158-.107l-.22-2.007c-.006-.059-.088-.107-.181-.107h-.468c-.093 0-.164.048-.158.107l.22 2.007c.006.06.088.107.181.107" clip-rule="evenodd"/>
    </g>
    <path fill="#5DBD83" fill-rule="evenodd" d="M32.51 74.743l-.322-.349c2.355-2.181 4.993-4.026 7.84-5.484l.217.422c-2.81 1.438-5.411 3.259-7.734 5.41M28.871 78.678l-.372-.294c.585-.74 1.208-1.466 1.85-2.156l.348.324c-.634.68-1.248 1.396-1.826 2.126" clip-rule="evenodd"/>
    <path fill="#5DBD83" fill-rule="evenodd" d="M89.087 99.98c0 18.345-14.872 33.217-33.218 33.217-18.345 0-33.217-14.872-33.217-33.218 0-18.345 14.872-33.217 33.217-33.217 18.346 0 33.218 14.872 33.218 33.217" clip-rule="evenodd"/>
    <path fill="#fff" fill-rule="evenodd" d="M86.129 99.98c0 16.712-13.548 30.259-30.26 30.259-16.712 0-30.26-13.547-30.26-30.259s13.548-30.26 30.26-30.26c16.712 0 30.26 13.548 30.26 30.26" clip-rule="evenodd"/>
    <mask id="a92ww6r4lC" width="62" height="62" x="25" y="69" maskUnits="userSpaceOnUse">
        <path fill="#fff" fill-rule="evenodd" d="M25.61 99.98c0 16.712 13.547 30.26 30.26 30.26 16.711 0 30.259-13.548 30.259-30.26 0-16.711-13.548-30.26-30.26-30.26-16.712 0-30.26 13.549-30.26 30.26z" clip-rule="evenodd"/>
    </mask>
    <g mask="url(#a92ww6r4lC)">
        <path fill="#913C38" fill-rule="evenodd" d="M67.605 107.035c1.224 2.833 2.486 5.708 3.764 8.536.635 1.419 1.285 2.827 1.95 4.222.655 1.399 1.34 2.773 2.042 4.12.357.658.703 1.344 1.078 1.967l.278.476.137.237c-.014-.022-.04-.039-.048-.048-.062-.038-.02.037.123.121.282.188.866.382 1.491.502.633.121 1.331.209 2.048.263 1.44.098 2.954.098 4.478.052l2.3-.096 2.296-.153.592 2.762c-3.134 1-6.261 1.72-9.681 1.938-.858.046-1.737.06-2.666-.025-.932-.094-1.912-.227-3.055-.721-.563-.259-1.193-.626-1.775-1.26-.144-.153-.28-.332-.41-.514l-.175-.264-.35-.526c-.477-.702-.884-1.402-1.318-2.105-1.649-2.819-3.117-5.666-4.497-8.546-1.376-2.889-2.663-5.777-3.871-8.758l5.269-2.18z" clip-rule="evenodd"/>
    </g>
    <mask id="6vcbwoampD" width="62" height="62" x="25" y="69" maskUnits="userSpaceOnUse">
        <path fill="#fff" fill-rule="evenodd" d="M25.61 99.98c0 16.712 13.547 30.26 30.26 30.26 16.711 0 30.259-13.548 30.259-30.26 0-16.711-13.548-30.26-30.26-30.26-16.712 0-30.26 13.549-30.26 30.26" clip-rule="evenodd"/>
    </mask>
    <g mask="url(#6vcbwoampD)">
        <path fill="#FEC5A4" fill-rule="evenodd" d="M60.857 106.644c-1.15 3.366 5.616 13.277 5.616 13.277l6.489-3.591s-1.766-5.042-3.897-9.034c-2.286-4.283-6.944-4.346-8.208-.652" clip-rule="evenodd"/>
    </g>
    <mask id="xbtf4g1uqE" width="62" height="62" x="25" y="69" maskUnits="userSpaceOnUse">
        <path fill="#fff" fill-rule="evenodd" d="M25.61 99.98c0 16.712 13.547 30.26 30.26 30.26 16.711 0 30.259-13.548 30.259-30.26 0-16.711-13.548-30.26-30.26-30.26-16.712 0-30.26 13.549-30.26 30.26" clip-rule="evenodd"/>
    </mask>
    <g mask="url(#xbtf4g1uqE)">
        <path fill="#606060" fill-rule="evenodd" d="M60.857 106.644c-1.15 3.366 5.616 13.277 5.616 13.277l6.489-3.591s-1.766-5.042-3.897-9.034c-2.286-4.283-6.944-4.346-8.208-.652" clip-rule="evenodd"/>
    </g>
    <mask id="gtmg6urkeF" width="62" height="62" x="25" y="69" maskUnits="userSpaceOnUse">
        <path fill="#fff" fill-rule="evenodd" d="M25.61 99.98c0 16.712 13.547 30.26 30.26 30.26 16.711 0 30.259-13.548 30.259-30.26 0-16.711-13.548-30.26-30.26-30.26-16.712 0-30.26 13.549-30.26 30.26" clip-rule="evenodd"/>
    </mask>
    <g mask="url(#gtmg6urkeF)">
        <path fill="#000" fill-rule="evenodd" d="M60.759 107.07c1.451-.699 3.125-.114 4.882 2.666 1.735 2.751 3.26 7.426 3.424 8.751l-2.593 1.434s-6.247-9.152-5.713-12.851" clip-rule="evenodd"/>
    </g>
    <mask id="lj7hy2xtmG" width="62" height="62" x="25" y="69" maskUnits="userSpaceOnUse">
        <path fill="#fff" fill-rule="evenodd" d="M25.61 99.98c0 16.712 13.547 30.26 30.26 30.26 16.711 0 30.259-13.548 30.259-30.26 0-16.711-13.548-30.26-30.26-30.26-16.712 0-30.26 13.549-30.26 30.26" clip-rule="evenodd"/>
    </mask>
    <g mask="url(#lj7hy2xtmG)">
        <path fill="#FEC5A4" fill-rule="evenodd" d="M65.235 104.07s4.834 11.36 1.35 32.515h-20.12c-.246-3.088 1.172-18.156-2.312-32.709 0 0 3.425-.692 6.706-.85 2.567-.124 6.286-.206 8.553 0 2.99.272 5.823 1.044 5.823 1.044" clip-rule="evenodd"/>
    </g>
    <mask id="v3ddnob9uH" width="62" height="62" x="25" y="69" maskUnits="userSpaceOnUse">
        <path fill="#fff" fill-rule="evenodd" d="M25.61 99.98c0 16.712 13.547 30.26 30.26 30.26 16.711 0 30.259-13.548 30.259-30.26 0-16.711-13.548-30.26-30.26-30.26-16.712 0-30.26 13.549-30.26 30.26" clip-rule="evenodd"/>
    </mask>
    <g mask="url(#v3ddnob9uH)">
        <path fill="#606060" fill-rule="evenodd" d="M65.235 104.07s4.834 11.36 1.35 32.515h-20.12c-.246-3.088 1.172-18.156-2.312-32.709 0 0 3.425-.692 6.706-.85 2.567-.124 6.286-.206 8.553 0 2.99.272 5.823 1.044 5.823 1.044" clip-rule="evenodd"/>
    </g>
    <mask id="l6u5fbt2hI" width="62" height="62" x="25" y="69" maskUnits="userSpaceOnUse">
        <path fill="#fff" fill-rule="evenodd" d="M25.61 99.98c0 16.712 13.547 30.26 30.26 30.26 16.711 0 30.259-13.548 30.259-30.26 0-16.711-13.548-30.26-30.26-30.26-16.712 0-30.26 13.549-30.26 30.26z" clip-rule="evenodd"/>
    </mask>
    <g mask="url(#l6u5fbt2hI)">
        <path fill="#fff" fill-rule="evenodd" d="M59.497 118.6l-4.32-4.624 3.152-4.64 4.321 4.623-3.153 4.641z" clip-rule="evenodd"/>
    </g>
    <mask id="6t0mugdjoJ" width="62" height="62" x="25" y="69" maskUnits="userSpaceOnUse">
        <path fill="#fff" fill-rule="evenodd" d="M25.61 99.98c0 16.712 13.547 30.26 30.26 30.26 16.711 0 30.259-13.548 30.259-30.26 0-16.711-13.548-30.26-30.26-30.26-16.712 0-30.26 13.549-30.26 30.26" clip-rule="evenodd"/>
    </mask>
    <g mask="url(#6t0mugdjoJ)">
        <path fill="#000" fill-rule="evenodd" d="M48.649 107.468c.418 2.395-.139 8.126-2.19 14.747-.184-5.096-.696-11.005-1.976-16.892l-.001-.029c1.32-.135 3.768-.071 4.167 2.174" clip-rule="evenodd"/>
    </g>
    <mask id="04cq3cyu4K" width="62" height="62" x="25" y="69" maskUnits="userSpaceOnUse">
        <path fill="#fff" fill-rule="evenodd" d="M25.61 99.98c0 16.712 13.547 30.26 30.26 30.26 16.711 0 30.259-13.548 30.259-30.26 0-16.711-13.548-30.26-30.26-30.26-16.712 0-30.26 13.549-30.26 30.26z" clip-rule="evenodd"/>
    </mask>
    <g mask="url(#04cq3cyu4K)">
        <path fill="#913C38" fill-rule="evenodd" d="M51.373 93.394c.635 2.752 1.348 7.795-.514 9.631 0 0 1.177 2.775 6.291 2.782 4.1.006 2.263-2.781 2.263-2.781-3.095-.733-3.095-3.01-2.634-5.148l-5.406-4.484z" clip-rule="evenodd"/>
    </g>
    <mask id="m67eam2zmL" width="62" height="62" x="25" y="69" maskUnits="userSpaceOnUse">
        <path fill="#fff" fill-rule="evenodd" d="M25.61 99.98c0 16.712 13.547 30.26 30.26 30.26 16.711 0 30.259-13.548 30.259-30.26 0-16.711-13.548-30.26-30.26-30.26-16.712 0-30.26 13.549-30.26 30.26" clip-rule="evenodd"/>
    </mask>
    <g mask="url(#m67eam2zmL)">
        <path fill="#000" fill-rule="evenodd" d="M53.577 95.223l3.2 2.651c-.112.506-.193 1.02-.212 1.518-1.178-.169-2.833-1.456-3-2.684-.084-.612-.078-1.2.012-1.485" clip-rule="evenodd"/>
    </g>
    <mask id="ctru53zpjM" width="62" height="62" x="25" y="69" maskUnits="userSpaceOnUse">
        <path fill="#fff" fill-rule="evenodd" d="M25.61 99.98c0 16.712 13.547 30.26 30.26 30.26 16.711 0 30.259-13.548 30.259-30.26 0-16.711-13.548-30.26-30.26-30.26-16.712 0-30.26 13.549-30.26 30.26" clip-rule="evenodd"/>
    </mask>
    <g mask="url(#ctru53zpjM)">
        <path fill="#1A2E35" fill-rule="evenodd" d="M59.396 85.21c1.71 1.104 1.956 6.423-.546 7.183-2.501.76-2.692-9.275.546-7.184" clip-rule="evenodd"/>
    </g>
    <mask id="gybpof8deN" width="62" height="62" x="25" y="69" maskUnits="userSpaceOnUse">
        <path fill="#fff" fill-rule="evenodd" d="M25.61 99.98c0 16.712 13.547 30.26 30.26 30.26 16.711 0 30.259-13.548 30.259-30.26 0-16.711-13.548-30.26-30.26-30.26-16.712 0-30.26 13.549-30.26 30.26" clip-rule="evenodd"/>
    </mask>
    <g mask="url(#gybpof8deN)">
        <path fill="#913C38" fill-rule="evenodd" d="M50.17 90.51c1.146 3.565 1.635 5.703 3.947 7.154 3.478 2.184 7.549-.453 7.497-4.25-.048-3.416-1.914-8.67-5.845-9.328-3.872-.648-6.746 2.861-5.6 6.425" clip-rule="evenodd"/>
    </g>
    <mask id="w7l5k2dtjO" width="62" height="62" x="25" y="69" maskUnits="userSpaceOnUse">
        <path fill="#fff" fill-rule="evenodd" d="M25.61 99.98c0 16.712 13.547 30.26 30.26 30.26 16.711 0 30.259-13.548 30.259-30.26 0-16.711-13.548-30.26-30.26-30.26-16.712 0-30.26 13.549-30.26 30.26" clip-rule="evenodd"/>
    </mask>
    <g mask="url(#w7l5k2dtjO)">
        <path fill="#1A2E35" fill-rule="evenodd" d="M51.464 86.837c1.904 2.573 1.91 6.67.416 7.138-1.494.47-5.595-4.277-5.808-6.805-.172-2.035 1.182-2.035 1.182-2.035s-2.185-1.268.296-2.79c2.793-1.714 9.711-1.551 6.598-3.961 2.253-.747 3.127.69 2.987 1.564 1.66-.507 1.55-2.311 1.55-2.311s4.412 2.466 2.424 5.342c-1.987 2.875-5.646 3.784-9.645 3.858" clip-rule="evenodd"/>
    </g>
    <mask id="2gjgj5xyrP" width="62" height="62" x="25" y="69" maskUnits="userSpaceOnUse">
        <path fill="#fff" fill-rule="evenodd" d="M25.61 99.98c0 16.712 13.547 30.26 30.26 30.26 16.711 0 30.259-13.548 30.259-30.26 0-16.711-13.548-30.26-30.26-30.26-16.712 0-30.26 13.549-30.26 30.26" clip-rule="evenodd"/>
    </mask>
    <g mask="url(#2gjgj5xyrP)">
        <path fill="#913C38" fill-rule="evenodd" d="M49.543 94.853c.728.718 1.715 1.047 2.549 1.047 1.253-.001 1.505-1.186.843-2.178-.595-.893-1.965-1.969-3.072-1.491-1.091.471-1.153 1.802-.32 2.622" clip-rule="evenodd"/>
    </g>
    <mask id="kmt7gvfs4Q" width="62" height="62" x="25" y="69" maskUnits="userSpaceOnUse">
        <path fill="#fff" fill-rule="evenodd" d="M25.61 99.98c0 16.712 13.547 30.26 30.26 30.26 16.711 0 30.259-13.548 30.259-30.26 0-16.711-13.548-30.26-30.26-30.26-16.712 0-30.26 13.549-30.26 30.26" clip-rule="evenodd"/>
    </mask>
    <g mask="url(#kmt7gvfs4Q)">
        <path fill="#1A2E35" fill-rule="evenodd" d="M55.95 90.312c.074.294.293.499.486.456.194-.043.29-.315.215-.61-.075-.293-.293-.498-.487-.455-.194.042-.29.315-.215.61" clip-rule="evenodd"/>
    </g>
    <mask id="tltstbahcR" width="62" height="62" x="25" y="69" maskUnits="userSpaceOnUse">
        <path fill="#fff" fill-rule="evenodd" d="M25.61 99.98c0 16.712 13.547 30.26 30.26 30.26 16.711 0 30.259-13.548 30.259-30.26 0-16.711-13.548-30.26-30.26-30.26-16.712 0-30.26 13.549-30.26 30.26" clip-rule="evenodd"/>
    </mask>
    <g mask="url(#tltstbahcR)">
        <path fill="#1A2E35" fill-rule="evenodd" d="M59.3 89.58c.075.294.293.498.487.456.193-.043.29-.316.215-.61-.076-.294-.294-.498-.487-.456-.194.043-.29.316-.215.61" clip-rule="evenodd"/>
    </g>
    <mask id="lozj5tdnpS" width="62" height="62" x="25" y="69" maskUnits="userSpaceOnUse">
        <path fill="#fff" fill-rule="evenodd" d="M25.61 99.98c0 16.712 13.547 30.26 30.26 30.26 16.711 0 30.259-13.548 30.259-30.26 0-16.711-13.548-30.26-30.26-30.26-16.712 0-30.26 13.549-30.26 30.26z" clip-rule="evenodd"/>
    </mask>
    <g mask="url(#lozj5tdnpS)">
        <path fill="#730C0C" fill-rule="evenodd" d="M58.272 89.959s1.108 1.55 2.059 2.206c-.4.6-1.35.573-1.35.573l-.709-2.779z" clip-rule="evenodd"/>
    </g>
    <mask id="dswdkcso9T" width="62" height="62" x="25" y="69" maskUnits="userSpaceOnUse">
        <path fill="#fff" fill-rule="evenodd" d="M25.61 99.98c0 16.712 13.547 30.26 30.26 30.26 16.711 0 30.259-13.548 30.259-30.26 0-16.711-13.548-30.26-30.26-30.26-16.712 0-30.26 13.549-30.26 30.26" clip-rule="evenodd"/>
    </mask>
    <g mask="url(#dswdkcso9T)">
        <path fill="#1A2E35" fill-rule="evenodd" d="M57.701 93.809c-1.029 0-1.657-.577-1.688-.606-.036-.034-.038-.09-.004-.126.033-.036.09-.038.126-.004.008.007.852.778 2.15.493.05-.012.095.02.106.068.01.048-.02.096-.068.106-.22.048-.428.069-.622.069" clip-rule="evenodd"/>
    </g>
    <mask id="xd6z19yjuU" width="62" height="62" x="25" y="69" maskUnits="userSpaceOnUse">
        <path fill="#fff" fill-rule="evenodd" d="M25.61 99.98c0 16.712 13.547 30.26 30.26 30.26 16.711 0 30.259-13.548 30.259-30.26 0-16.711-13.548-30.26-30.26-30.26-16.712 0-30.26 13.549-30.26 30.26" clip-rule="evenodd"/>
    </mask>
    <g mask="url(#xd6z19yjuU)">
        <path fill="#1A2E35" fill-rule="evenodd" d="M54.622 89.466c-.023 0-.048-.005-.07-.015-.091-.04-.132-.144-.093-.234.388-.893 1.204-1.022 1.239-1.028.095-.014.187.054.202.151.014.097-.053.187-.15.202-.026.004-.657.11-.964.817-.03.067-.095.107-.164.107" clip-rule="evenodd"/>
    </g>
    <mask id="7iywmohcuV" width="62" height="62" x="25" y="69" maskUnits="userSpaceOnUse">
        <path fill="#fff" fill-rule="evenodd" d="M25.61 99.98c0 16.712 13.547 30.26 30.26 30.26 16.711 0 30.259-13.548 30.259-30.26 0-16.711-13.548-30.26-30.26-30.26-16.712 0-30.26 13.549-30.26 30.26" clip-rule="evenodd"/>
    </mask>
    <g mask="url(#7iywmohcuV)">
        <path fill="#1A2E35" fill-rule="evenodd" d="M60.43 88.122c-.05 0-.101-.022-.136-.064-.514-.616-1.162-.573-1.188-.57-.103.008-.184-.064-.193-.162-.008-.097.064-.183.162-.192.033-.004.854-.07 1.492.695.063.076.053.188-.022.251-.034.028-.074.042-.114.042" clip-rule="evenodd"/>
    </g>
    <mask id="9q4ointhgW" width="62" height="62" x="25" y="69" maskUnits="userSpaceOnUse">
        <path fill="#fff" fill-rule="evenodd" d="M25.61 99.98c0 16.712 13.547 30.26 30.26 30.26 16.711 0 30.259-13.548 30.259-30.26 0-16.711-13.548-30.26-30.26-30.26-16.712 0-30.26 13.549-30.26 30.26z" clip-rule="evenodd"/>
    </mask>
    <g mask="url(#9q4ointhgW)">
        <path fill="#913C38" fill-rule="evenodd" d="M48.125 109.301l-.773 1.679c-.26.575-.51 1.158-.755 1.741-.499 1.165-.963 2.341-1.404 3.517-.432 1.18-.848 2.361-1.186 3.544-.181.593-.325 1.183-.481 1.773l-.199.882-.025.11-.012.055v-.004c-.001-.01-.008-.019-.008-.019-.009-.006-.01.017-.014.051-.01.149.107.562.324.987.216.431.513.898.852 1.361.672.94 1.495 1.871 2.356 2.785 1.738 1.812 3.662 3.607 5.589 5.298l-1.578 2.343c-2.423-1.316-4.69-2.771-6.868-4.518-1.088-.873-2.142-1.815-3.15-2.921-.5-.56-.986-1.163-1.44-1.873-.445-.715-.898-1.525-1.112-2.688-.05-.293-.085-.6-.082-.938-.002-.164.01-.338.028-.513l.023-.194.017-.134.146-1.072c.12-.703.232-1.413.397-2.097.3-1.383.67-2.731 1.1-4.053.421-1.324.9-2.621 1.422-3.897.269-.635.542-1.268.829-1.897.287-.64.575-1.234.928-1.906l5.076 2.598z" clip-rule="evenodd"/>
    </g>
    <mask id="crifij89jX" width="62" height="62" x="25" y="69" maskUnits="userSpaceOnUse">
        <path fill="#fff" fill-rule="evenodd" d="M25.61 99.98c0 16.712 13.547 30.26 30.26 30.26 16.711 0 30.259-13.548 30.259-30.26 0-16.711-13.548-30.26-30.26-30.26-16.712 0-30.26 13.549-30.26 30.26" clip-rule="evenodd"/>
    </mask>
    <g mask="url(#crifij89jX)">
        <path fill="#FEC5A4" fill-rule="evenodd" d="M44.153 103.876c-3.54.517-7.19 13.554-7.19 13.554l8.56 3.257s2.151-5.604 3.623-9.96c1.543-4.564-1.194-7.407-4.993-6.851" clip-rule="evenodd"/>
    </g>
    <mask id="hhxlgvvg5Y" width="62" height="62" x="25" y="69" maskUnits="userSpaceOnUse">
        <path fill="#fff" fill-rule="evenodd" d="M25.61 99.98c0 16.712 13.547 30.26 30.26 30.26 16.711 0 30.259-13.548 30.259-30.26 0-16.711-13.548-30.26-30.26-30.26-16.712 0-30.26 13.549-30.26 30.26" clip-rule="evenodd"/>
    </mask>
    <g mask="url(#hhxlgvvg5Y)">
        <path fill="#606060" fill-rule="evenodd" d="M44.153 103.876c-3.54.517-7.19 13.554-7.19 13.554l8.56 3.257s2.151-5.604 3.623-9.96c1.543-4.564-1.194-7.407-4.993-6.851" clip-rule="evenodd"/>
    </g>
    <path fill="#5DBD83" fill-rule="evenodd" d="M171.059 139.055c0 18.346-14.872 33.218-33.217 33.218-18.346 0-33.218-14.872-33.218-33.218 0-18.345 14.872-33.217 33.218-33.217 18.345 0 33.217 14.872 33.217 33.217" clip-rule="evenodd"/>
    <path fill="#fff" fill-rule="evenodd" d="M168.101 139.056c0 16.712-13.547 30.26-30.259 30.26s-30.26-13.548-30.26-30.26c0-16.712 13.548-30.259 30.26-30.259 16.712 0 30.259 13.547 30.259 30.259" clip-rule="evenodd"/>
    <mask id="lsd7vn124Z" width="62" height="62" x="107" y="108" maskUnits="userSpaceOnUse">
        <path fill="#fff" fill-rule="evenodd" d="M107.582 139.056c0 16.712 13.548 30.26 30.26 30.26 16.712 0 30.259-13.548 30.259-30.26 0-16.712-13.547-30.259-30.259-30.259s-30.26 13.547-30.26 30.259z" clip-rule="evenodd"/>
    </mask>
    <g mask="url(#lsd7vn124Z)">
        <path fill="#FF8C7B" fill-rule="evenodd" d="M128.672 147.686c-.08 1.406-.244 2.693-.427 4.028-.183 1.324-.432 2.637-.715 3.947-.554 2.621-1.318 5.221-2.372 7.757l-.424.945-.106.236-.053.117c-.018.039-.032.071-.073.152-.135.27-.308.554-.554.832-.247.275-.557.542-.923.728-.357.186-.75.308-1.1.345-.713.084-1.268-.042-1.736-.18-.917-.302-1.572-.714-2.19-1.134-.606-.428-1.147-.879-1.665-1.341-2.031-1.88-3.716-3.887-5.267-6.074l1.634-1.381c.914.857 1.868 1.725 2.818 2.548.947.831 1.927 1.617 2.91 2.319.489.35.985.677 1.469.944.475.269.967.486 1.295.548.154.03.254.008.183-.002-.066-.019-.302.092-.359.164-.035.032-.04.037-.036.015l.148-.387.324-.847c.804-2.296 1.411-4.707 1.881-7.158.244-1.223.416-2.466.601-3.703.177-1.228.318-2.513.427-3.688l4.31.27z" clip-rule="evenodd"/>
    </g>
    <mask id="2ja2f0j9yaa" width="62" height="62" x="107" y="108" maskUnits="userSpaceOnUse">
        <path fill="#fff" fill-rule="evenodd" d="M107.582 139.056c0 16.712 13.548 30.26 30.26 30.26 16.712 0 30.259-13.548 30.259-30.26 0-16.712-13.547-30.259-30.259-30.259s-30.26 13.547-30.26 30.259" clip-rule="evenodd"/>
    </mask>
    <g mask="url(#2ja2f0j9yaa)">
        <path fill="#1A2E35" fill-rule="evenodd" d="M125.732 142.537c-1.741.443-2.959 7.607-2.959 7.607l4.798 3.263s4.599-7.227 3.26-9.142c-1.395-1.993-2.559-2.375-5.099-1.728" clip-rule="evenodd"/>
    </g>
    <mask id="1lqcw3fbqab" width="62" height="62" x="107" y="108" maskUnits="userSpaceOnUse">
        <path fill="#fff" fill-rule="evenodd" d="M107.582 139.056c0 16.712 13.548 30.26 30.26 30.26 16.712 0 30.259-13.548 30.259-30.26 0-16.712-13.547-30.259-30.259-30.259s-30.26 13.547-30.26 30.259z" clip-rule="evenodd"/>
    </mask>
    <g mask="url(#1lqcw3fbqab)">
        <path fill="#000" fill-rule="evenodd" d="M125.889 144.139l-1.337 7.221 2.696 1.828-1.359-9.049z" clip-rule="evenodd"/>
    </g>
    <mask id="mc5ykso5aac" width="62" height="62" x="107" y="108" maskUnits="userSpaceOnUse">
        <path fill="#fff" fill-rule="evenodd" d="M107.582 139.056c0 16.712 13.548 30.26 30.26 30.26 16.712 0 30.259-13.548 30.259-30.26 0-16.712-13.547-30.259-30.259-30.259s-30.26 13.547-30.26 30.259z" clip-rule="evenodd"/>
    </mask>
    <g mask="url(#mc5ykso5aac)">
        <path fill="#FF8C7B" fill-rule="evenodd" d="M112.749 156.395l-2.282-3.604-1.294 4.096s1.871 1.963 3.564 1.495l.012-1.987z" clip-rule="evenodd"/>
    </g>
    <mask id="r609nax6bad" width="62" height="62" x="107" y="108" maskUnits="userSpaceOnUse">
        <path fill="#fff" fill-rule="evenodd" d="M107.582 139.056c0 16.712 13.548 30.26 30.26 30.26 16.712 0 30.259-13.548 30.259-30.26 0-16.712-13.547-30.259-30.259-30.259s-30.26 13.547-30.26 30.259z" clip-rule="evenodd"/>
    </mask>
    <g mask="url(#r609nax6bad)">
        <path fill="#FF8C7B" fill-rule="evenodd" d="M107.122 151.598l-.898 3.488 2.949 1.799 1.294-4.095-3.345-1.192z" clip-rule="evenodd"/>
    </g>
    <mask id="twxjhnnzaae" width="62" height="62" x="107" y="108" maskUnits="userSpaceOnUse">
        <path fill="#fff" fill-rule="evenodd" d="M107.582 139.056c0 16.712 13.548 30.26 30.26 30.26 16.712 0 30.259-13.548 30.259-30.26 0-16.712-13.547-30.259-30.259-30.259s-30.26 13.547-30.26 30.259" clip-rule="evenodd"/>
    </mask>
    <g mask="url(#twxjhnnzaae)">
        <path fill="#1A2E35" fill-rule="evenodd" d="M125.732 142.538s-2.012.708 2.018 25.493h17.155c-.288-6.982-.296-11.287 3.041-25.616 0 0-3.594-.782-7.284-.96-2.887-.139-5.253-.231-7.79.001-3.346.305-7.14 1.082-7.14 1.082" clip-rule="evenodd"/>
    </g>
    <mask id="z3zh6rodtaf" width="62" height="62" x="107" y="108" maskUnits="userSpaceOnUse">
        <path fill="#fff" fill-rule="evenodd" d="M107.582 139.056c0 16.712 13.548 30.26 30.26 30.26 16.712 0 30.259-13.548 30.259-30.26 0-16.712-13.547-30.259-30.259-30.259s-30.26 13.547-30.26 30.259" clip-rule="evenodd"/>
    </mask>
    <g mask="url(#z3zh6rodtaf)">
        <path fill="#1A2E35" fill-rule="evenodd" d="M129.534 124.255c6.139-9.832 24.331-1.773 14.833 7.905-12.69 12.932-14.833-7.905-14.833-7.905" clip-rule="evenodd"/>
    </g>
    <mask id="zrbco4zd6ag" width="62" height="62" x="107" y="108" maskUnits="userSpaceOnUse">
        <path fill="#fff" fill-rule="evenodd" d="M107.582 139.056c0 16.712 13.548 30.26 30.26 30.26 16.712 0 30.259-13.548 30.259-30.26 0-16.712-13.547-30.259-30.259-30.259s-30.26 13.547-30.26 30.259" clip-rule="evenodd"/>
    </mask>
    <g mask="url(#zrbco4zd6ag)">
        <path fill="#1A2E35" fill-rule="evenodd" d="M133.595 138.162c-.683 0-1.286-.161-1.808-.484-3.814-2.355-1.905-12.367-1.822-12.792.019-.096.114-.159.209-.14.096.019.159.112.141.208-.02.102-1.947 10.195 1.658 12.421 1.745 1.078 4.542.148 8.314-2.762.079-.061.19-.046.25.031.06.078.046.19-.032.25-2.819 2.175-5.133 3.268-6.91 3.268" clip-rule="evenodd"/>
    </g>
    <mask id="2o6nqtf12ah" width="62" height="62" x="107" y="108" maskUnits="userSpaceOnUse">
        <path fill="#fff" fill-rule="evenodd" d="M107.582 139.056c0 16.712 13.548 30.26 30.26 30.26 16.712 0 30.259-13.548 30.259-30.26 0-16.712-13.547-30.259-30.259-30.259s-30.26 13.547-30.26 30.259" clip-rule="evenodd"/>
    </mask>
    <g mask="url(#2o6nqtf12ah)">
        <path fill="#1A2E35" fill-rule="evenodd" d="M141.052 121.477c1.916-5.737 12.067-3.904 8.49 2.201-3.786 6.464-8.49-2.201-8.49-2.201" clip-rule="evenodd"/>
    </g>
    <mask id="78eith3e9ai" width="62" height="62" x="107" y="108" maskUnits="userSpaceOnUse">
        <path fill="#fff" fill-rule="evenodd" d="M107.582 139.056c0 16.712 13.548 30.26 30.26 30.26 16.712 0 30.259-13.548 30.259-30.26 0-16.712-13.547-30.259-30.259-30.259s-30.26 13.547-30.26 30.259z" clip-rule="evenodd"/>
    </mask>
    <g mask="url(#78eith3e9ai)">
        <path fill="#FF8C7B" fill-rule="evenodd" d="M139.89 132.684c-.492 2.506-.982 7.099.772 8.771 0 0-.686 2.543-5.343 2.543-5.121 0-2.447-2.543-2.447-2.543 2.795-.667 2.723-2.741 2.236-4.688l4.782-4.083z" clip-rule="evenodd"/>
    </g>
    <mask id="xo6pukp6iaj" width="62" height="62" x="107" y="108" maskUnits="userSpaceOnUse">
        <path fill="#fff" fill-rule="evenodd" d="M107.582 139.056c0 16.712 13.548 30.26 30.26 30.26 16.712 0 30.259-13.548 30.259-30.26 0-16.712-13.547-30.259-30.259-30.259s-30.26 13.547-30.26 30.259" clip-rule="evenodd"/>
    </mask>
    <g mask="url(#xo6pukp6iaj)">
        <path fill="#FEA180" fill-rule="evenodd" d="M134.964 143.994s1.173 1.12 1.688 2.596c.895-.316 5.522-2.86 5.615-5.22-.564-.186-1.872-.395-1.872-.395s-1.925 1.99-5.431 3.019" clip-rule="evenodd"/>
    </g>
    <mask id="2i61k7zsrak" width="62" height="62" x="107" y="108" maskUnits="userSpaceOnUse">
        <path fill="#fff" fill-rule="evenodd" d="M107.582 139.056c0 16.712 13.548 30.26 30.26 30.26 16.712 0 30.259-13.548 30.259-30.26 0-16.712-13.547-30.259-30.259-30.259s-30.26 13.547-30.26 30.259" clip-rule="evenodd"/>
    </mask>
    <g mask="url(#2i61k7zsrak)">
        <path fill="#FEA180" fill-rule="evenodd" d="M134.964 143.994s-1.022 1.1-1.687 2.596c-1.282-.804-2.643-2.574-1.658-5.065.702-.312 2.133-.365 2.133-.365s-2.294 1.805 1.212 2.834" clip-rule="evenodd"/>
    </g>
    <mask id="eb6yslm3jal" width="62" height="62" x="107" y="108" maskUnits="userSpaceOnUse">
        <path fill="#fff" fill-rule="evenodd" d="M107.582 139.056c0 16.712 13.548 30.26 30.26 30.26 16.712 0 30.259-13.548 30.259-30.26 0-16.712-13.547-30.259-30.259-30.259s-30.26 13.547-30.26 30.259" clip-rule="evenodd"/>
    </mask>
    <g mask="url(#eb6yslm3jal)">
        <path fill="#000" fill-rule="evenodd" d="M137.94 134.35l-2.83 2.415c.117.46.207.928.24 1.382 1.068-.154 2.534-1.326 2.648-2.444.056-.558.033-1.094-.058-1.353" clip-rule="evenodd"/>
    </g>
    <mask id="t7rxr9vpiam" width="62" height="62" x="107" y="108" maskUnits="userSpaceOnUse">
        <path fill="#fff" fill-rule="evenodd" d="M107.582 139.056c0 16.712 13.548 30.26 30.26 30.26 16.712 0 30.259-13.548 30.259-30.26 0-16.712-13.547-30.259-30.259-30.259s-30.26 13.547-30.26 30.259" clip-rule="evenodd"/>
    </mask>
    <g mask="url(#t7rxr9vpiam)">
        <path fill="#FF8C7B" fill-rule="evenodd" d="M142.533 128.086c-.983 4.075-1.311 5.821-3.767 7.568-3.694 2.626-8.484.528-8.739-3.759-.229-3.859 1.417-9.875 5.74-10.8 4.26-.912 7.749 2.916 6.766 6.991" clip-rule="evenodd"/>
    </g>
    <mask id="97ao1rs7pan" width="62" height="62" x="107" y="108" maskUnits="userSpaceOnUse">
        <path fill="#fff" fill-rule="evenodd" d="M107.582 139.056c0 16.712 13.548 30.26 30.26 30.26 16.712 0 30.259-13.548 30.259-30.26 0-16.712-13.547-30.259-30.259-30.259s-30.26 13.547-30.26 30.259" clip-rule="evenodd"/>
    </mask>
    <g mask="url(#97ao1rs7pan)">
        <path fill="#1A2E35" fill-rule="evenodd" d="M135.608 127.529c-.06.336-.285.577-.505.538-.219-.039-.349-.343-.289-.678.059-.336.285-.576.504-.537.22.039.349.342.29.677" clip-rule="evenodd"/>
    </g>
    <mask id="lmbdi5xl1ao" width="62" height="62" x="107" y="108" maskUnits="userSpaceOnUse">
        <path fill="#fff" fill-rule="evenodd" d="M107.582 139.056c0 16.712 13.548 30.26 30.26 30.26 16.712 0 30.259-13.548 30.259-30.26 0-16.712-13.547-30.259-30.259-30.259s-30.26 13.547-30.26 30.259" clip-rule="evenodd"/>
    </mask>
    <g mask="url(#lmbdi5xl1ao)">
        <path fill="#1A2E35" fill-rule="evenodd" d="M131.816 126.86c-.06.335-.286.576-.505.537-.22-.039-.349-.343-.289-.678.059-.335.285-.576.504-.537.219.039.349.342.29.678" clip-rule="evenodd"/>
    </g>
    <mask id="baki00yydap" width="62" height="62" x="107" y="108" maskUnits="userSpaceOnUse">
        <path fill="#fff" fill-rule="evenodd" d="M107.582 139.056c0 16.712 13.548 30.26 30.26 30.26 16.712 0 30.259-13.548 30.259-30.26 0-16.712-13.547-30.259-30.259-30.259s-30.26 13.547-30.26 30.259" clip-rule="evenodd"/>
    </mask>
    <g mask="url(#baki00yydap)">
        <path fill="#1A2E35" fill-rule="evenodd" d="M131.62 126.217l-.765-.375s.302.703.765.375" clip-rule="evenodd"/>
    </g>
    <mask id="15c9s3mqsaq" width="62" height="62" x="107" y="108" maskUnits="userSpaceOnUse">
        <path fill="#fff" fill-rule="evenodd" d="M107.582 139.056c0 16.712 13.548 30.26 30.26 30.26 16.712 0 30.259-13.548 30.259-30.26 0-16.712-13.547-30.259-30.259-30.259s-30.26 13.547-30.26 30.259z" clip-rule="evenodd"/>
    </mask>
    <g mask="url(#15c9s3mqsaq)">
        <path fill="#FF5551" fill-rule="evenodd" d="M133.188 128.213s-.825 1.343-1.575 1.929c.37.492 1.156.436 1.156.436l.419-2.365z" clip-rule="evenodd"/>
    </g>
    <mask id="e9xd9psa9ar" width="62" height="62" x="107" y="108" maskUnits="userSpaceOnUse">
        <path fill="#fff" fill-rule="evenodd" d="M107.582 139.056c0 16.712 13.548 30.26 30.26 30.26 16.712 0 30.259-13.548 30.259-30.26 0-16.712-13.547-30.259-30.259-30.259s-30.26 13.547-30.26 30.259" clip-rule="evenodd"/>
    </mask>
    <g mask="url(#e9xd9psa9ar)">
        <path fill="#1A2E35" fill-rule="evenodd" d="M134.287 132.161c1.226 0 1.927-.731 1.96-.766.038-.04.036-.103-.004-.141-.04-.038-.103-.036-.141.004-.009.009-.883.915-2.351.655-.055-.008-.107.027-.116.081-.01.055.026.107.081.116.201.036.391.051.571.051" clip-rule="evenodd"/>
    </g>
    <mask id="8vpie3lqpas" width="62" height="62" x="107" y="108" maskUnits="userSpaceOnUse">
        <path fill="#fff" fill-rule="evenodd" d="M107.582 139.056c0 16.712 13.548 30.26 30.26 30.26 16.712 0 30.259-13.548 30.259-30.26 0-16.712-13.547-30.259-30.259-30.259s-30.26 13.547-30.26 30.259" clip-rule="evenodd"/>
    </mask>
    <g mask="url(#8vpie3lqpas)">
        <path fill="#1A2E35" fill-rule="evenodd" d="M144.195 129.299c-2.103 3.5-7.739-3.821-8.672-7.362-1.384.686-4.224 2.704-4.285 1.395-.062-1.31 4.788-3.58 7.373-3.177s7.035 6.732 5.584 9.144" clip-rule="evenodd"/>
    </g>
    <mask id="ug54rinlsat" width="62" height="62" x="107" y="108" maskUnits="userSpaceOnUse">
        <path fill="#fff" fill-rule="evenodd" d="M107.582 139.056c0 16.712 13.548 30.26 30.26 30.26 16.712 0 30.259-13.548 30.259-30.26 0-16.712-13.547-30.259-30.259-30.259s-30.26 13.547-30.26 30.259" clip-rule="evenodd"/>
    </mask>
    <g mask="url(#ug54rinlsat)">
        <path fill="#FF8C7B" fill-rule="evenodd" d="M143.179 131.344c-.328.805-.996 1.383-1.659 1.65-.997.401-1.613-.462-1.434-1.465.161-.901.873-2.197 1.921-2.171 1.032.025 1.547 1.066 1.172 1.986" clip-rule="evenodd"/>
    </g>
    <mask id="ia9a2n8pvau" width="62" height="62" x="107" y="108" maskUnits="userSpaceOnUse">
        <path fill="#fff" fill-rule="evenodd" d="M107.582 139.056c0 16.712 13.548 30.26 30.26 30.26 16.712 0 30.259-13.548 30.259-30.26 0-16.712-13.547-30.259-30.259-30.259s-30.26 13.547-30.26 30.259" clip-rule="evenodd"/>
    </mask>
    <g mask="url(#ia9a2n8pvau)">
        <path fill="#1A2E35" fill-rule="evenodd" d="M136.915 126.073c.03 0 .061-.007.091-.022.098-.05.137-.171.087-.269-.504-.986-1.422-1.093-1.46-1.097-.111-.012-.209.068-.22.178-.012.109.068.208.177.22.03.003.745.094 1.146.881.036.069.106.109.179.109" clip-rule="evenodd"/>
    </g>
    <mask id="ngiq20rhwav" width="62" height="62" x="107" y="108" maskUnits="userSpaceOnUse">
        <path fill="#fff" fill-rule="evenodd" d="M107.582 139.056c0 16.712 13.548 30.26 30.26 30.26 16.712 0 30.259-13.548 30.259-30.26 0-16.712-13.547-30.259-30.259-30.259s-30.26 13.547-30.26 30.259" clip-rule="evenodd"/>
    </mask>
    <g mask="url(#ngiq20rhwav)">
        <path fill="#1A2E35" fill-rule="evenodd" d="M130.911 125.411c.053 0 .105-.021.145-.062.617-.645 1.342-.518 1.349-.516.108.02.214-.052.234-.16.02-.109-.051-.213-.16-.234-.038-.006-.948-.167-1.713.633-.076.081-.073.207.007.283.038.037.088.056.138.056" clip-rule="evenodd"/>
    </g>
    <mask id="yo0nttdr3aw" width="62" height="62" x="107" y="108" maskUnits="userSpaceOnUse">
        <path fill="#fff" fill-rule="evenodd" d="M107.582 139.056c0 16.712 13.548 30.26 30.26 30.26 16.712 0 30.259-13.548 30.259-30.26 0-16.712-13.547-30.259-30.259-30.259s-30.26 13.547-30.26 30.259" clip-rule="evenodd"/>
    </mask>
    <g mask="url(#yo0nttdr3aw)">
        <path fill="#1A2E35" fill-rule="evenodd" d="M145.162 167.026l.439 1.535c.06.119-.081.241-.279.241h-17.656c-.155 0-.283-.076-.293-.173l-.155-1.536c-.01-.106.123-.197.293-.197h17.372c.127 0 .24.053.279.13" clip-rule="evenodd"/>
    </g>
    <mask id="hd9bsk0tdax" width="62" height="62" x="107" y="108" maskUnits="userSpaceOnUse">
        <path fill="#fff" fill-rule="evenodd" d="M107.582 139.056c0 16.712 13.548 30.26 30.26 30.26 16.712 0 30.259-13.548 30.259-30.26 0-16.712-13.547-30.259-30.259-30.259s-30.26 13.547-30.26 30.259" clip-rule="evenodd"/>
    </mask>
    <g mask="url(#hd9bsk0tdax)">
        <path fill="#5DBD83" fill-rule="evenodd" d="M142.829 168.967h.465c.093 0 .163-.048.157-.106l-.218-1.995c-.006-.058-.087-.106-.18-.106h-.466c-.092 0-.163.048-.156.106l.218 1.995c.006.058.087.106.18.106" clip-rule="evenodd"/>
    </g>
    <mask id="7y6t2lzy9ay" width="62" height="62" x="107" y="108" maskUnits="userSpaceOnUse">
        <path fill="#fff" fill-rule="evenodd" d="M107.582 139.056c0 16.712 13.548 30.26 30.26 30.26 16.712 0 30.259-13.548 30.259-30.26 0-16.712-13.547-30.259-30.259-30.259s-30.26 13.547-30.26 30.259" clip-rule="evenodd"/>
    </mask>
    <g mask="url(#7y6t2lzy9ay)">
        <path fill="#5DBD83" fill-rule="evenodd" d="M128.973 168.967h.465c.093 0 .163-.048.157-.106l-.218-1.995c-.006-.058-.087-.106-.18-.106h-.466c-.092 0-.163.048-.156.106l.218 1.995c.006.058.087.106.18.106" clip-rule="evenodd"/>
    </g>
    <mask id="ofkdh11htaz" width="62" height="62" x="107" y="108" maskUnits="userSpaceOnUse">
        <path fill="#fff" fill-rule="evenodd" d="M107.582 139.056c0 16.712 13.548 30.26 30.26 30.26 16.712 0 30.259-13.548 30.259-30.26 0-16.712-13.547-30.259-30.259-30.259s-30.26 13.547-30.26 30.259" clip-rule="evenodd"/>
    </mask>
    <g mask="url(#ofkdh11htaz)">
        <path fill="#5DBD83" fill-rule="evenodd" d="M135.901 168.967h.465c.093 0 .163-.048.157-.106l-.218-1.995c-.006-.058-.087-.106-.18-.106h-.466c-.092 0-.163.048-.156.106l.218 1.995c.006.058.087.106.18.106" clip-rule="evenodd"/>
    </g>
    <mask id="yzoxtbo01aA" width="62" height="62" x="107" y="108" maskUnits="userSpaceOnUse">
        <path fill="#fff" fill-rule="evenodd" d="M107.582 139.056c0 16.712 13.548 30.26 30.26 30.26 16.712 0 30.259-13.548 30.259-30.26 0-16.712-13.547-30.259-30.259-30.259s-30.26 13.547-30.26 30.259" clip-rule="evenodd"/>
    </mask>
    <g mask="url(#yzoxtbo01aA)">
        <path fill="#1A2E35" fill-rule="evenodd" d="M135.412 126.889l-.765-.375s.302.702.765.375" clip-rule="evenodd"/>
    </g>
    <mask id="j7gjarq4uaB" width="62" height="62" x="107" y="108" maskUnits="userSpaceOnUse">
        <path fill="#fff" fill-rule="evenodd" d="M107.582 139.056c0 16.712 13.548 30.26 30.26 30.26 16.712 0 30.259-13.548 30.259-30.26 0-16.712-13.547-30.259-30.259-30.259s-30.26 13.547-30.26 30.259z" clip-rule="evenodd"/>
    </mask>
    <g mask="url(#j7gjarq4uaB)">
        <path fill="#FF8C7B" fill-rule="evenodd" d="M149.8 146.93c.96 2.333 1.745 4.636 2.432 7.029.675 2.392 1.267 4.815 1.553 7.385l.096.967.048.992.011.248.003.062.001.097-.008.266c-.028.352-.108.685-.219.98-.228.584-.544 1.016-.855 1.35-.629.67-1.255 1.069-1.866 1.427-.612.353-1.224.62-1.829.867-2.429.955-4.824 1.486-7.313 1.831l-.492-2.082c2.182-.835 4.413-1.743 6.364-2.81.484-.267.943-.557 1.352-.847.404-.287.761-.61.925-.851.086-.119.104-.2.086-.183-.011.011-.029.048-.035.099-.004.013-.006.026-.006.039v.01l-.002-.025-.006-.05-.022-.203-.087-.812-.133-.826c-.081-.548-.211-1.111-.317-1.666-.137-.559-.25-1.116-.407-1.676-.28-1.119-.611-2.241-.953-3.358-.71-2.22-1.493-4.482-2.319-6.626l3.998-1.634z" clip-rule="evenodd"/>
    </g>
    <mask id="pgubq8fn7aC" width="62" height="62" x="107" y="108" maskUnits="userSpaceOnUse">
        <path fill="#fff" fill-rule="evenodd" d="M107.582 139.056c0 16.712 13.548 30.26 30.26 30.26 16.712 0 30.259-13.548 30.259-30.26 0-16.712-13.547-30.259-30.259-30.259s-30.26 13.547-30.26 30.259" clip-rule="evenodd"/>
    </mask>
    <g mask="url(#pgubq8fn7aC)">
        <path fill="#1A2E35" fill-rule="evenodd" d="M147.946 142.415c1.719.522 3.783 6.441 3.783 6.441l-6.668 4.767s-2.431-4.94-1.709-7.162c.752-2.314 2.633-4.643 4.594-4.046" clip-rule="evenodd"/>
    </g>
    <mask id="xwiu171w1aD" width="62" height="62" x="107" y="108" maskUnits="userSpaceOnUse">
        <path fill="#fff" fill-rule="evenodd" d="M107.582 139.056c0 16.712 13.548 30.26 30.26 30.26 16.712 0 30.259-13.548 30.259-30.26 0-16.712-13.547-30.259-30.259-30.259s-30.26 13.547-30.26 30.259z" clip-rule="evenodd"/>
    </mask>
    <g mask="url(#xwiu171w1aD)">
        <path fill="#FF8C7B" fill-rule="evenodd" d="M141.636 168.147l-4.555-.284 2.559 3.45s2.688-.365 3.301-2.01l-1.305-1.156z" clip-rule="evenodd"/>
    </g>
    <mask id="48omgb0xmaE" width="62" height="62" x="107" y="108" maskUnits="userSpaceOnUse">
        <path fill="#fff" fill-rule="evenodd" d="M107.582 139.056c0 16.712 13.548 30.26 30.26 30.26 16.712 0 30.259-13.548 30.259-30.26 0-16.712-13.547-30.259-30.259-30.259s-30.26 13.547-30.26 30.259z" clip-rule="evenodd"/>
    </mask>
    <g mask="url(#48omgb0xmaE)">
        <path fill="#FF8C7B" fill-rule="evenodd" d="M134.154 169.874l2.298 2.772 3.188-1.333-2.559-3.45-2.927 2.011z" clip-rule="evenodd"/>
    </g>
</svg>
