<svg xmlns="http://www.w3.org/2000/svg" width="206" height="205" fill="none" viewBox="0 0 206 205">
    <path fill="#FBDCA9" fill-rule="evenodd" d="M205.389 102.5c0 56.609-45.891 102.5-102.5 102.5-56.61 0-102.5-45.891-102.5-102.5C.389 45.89 46.279 0 102.889 0c56.609 0 102.5 45.89 102.5 102.5" clip-rule="evenodd" opacity=".2"/>
    <path fill="#ECECEC" d="M31.417 50.022c-2.259 0-4.097 1.839-4.097 4.098v84.631c0 2.259 1.838 4.097 4.097 4.097h137.545c2.259 0 4.098-1.838 4.098-4.097V54.097c0-2.259-1.839-4.097-4.098-4.097H31.417v.022zm132.008 83.634H36.689V58.904h126.714v74.752h.022zM171.598 144.576H28.781c-.952 0-1.86.377-2.59 1.063l-14.398 13.533c-2.968 2.791-1.262 8.328 2.592 8.328H185.95c3.854 0 5.56-5.537 2.592-8.328l-14.397-13.533c-.687-.686-1.617-1.063-2.547-1.063z"/>
    <path fill="#fff" d="M163.425 133.657V58.904H36.688v74.775h126.737v-.022zM98.838 106.79H71.396v-3.411h27.42v3.411h.022zm31.164 18.783h-29.458v-2.592h29.436v2.592h.022zm27.088-4.43h-56.546v-2.592h56.546v2.592zm0-4.452h-56.546v-2.592h56.546v2.592zm0-4.43h-56.546v-2.591h56.546v2.591zm-56.546-5.471v-3.411h27.442v3.411h-27.442zm56.59 0h-27.442v-3.411h27.442v3.411zM42.248 65.239h114.886V100.3H42.248V65.239zm0 38.14h27.42v3.411h-27.42v-3.411zm0 6.49h56.546v17.21H42.248v-17.21z"/>
    <path fill="#E1E1E1" d="M157 65h-56v35h56V65z"/>
    <path fill="#fff" d="M99 65H42v62h57V65z"/>
    <path fill="#5DBD83" d="M127.986 103.379h-27.442v3.411h27.442v-3.411zM157.09 109.67h-56.546v2.591h56.546v-2.591zM157.09 114.121h-56.546v2.592h56.546v-2.592zM157.09 118.551h-56.546v2.591h56.546v-2.591zM129.98 123.002h-29.436v2.591h29.436v-2.591zM157.134 103.379h-27.442v3.411h27.442v-3.411z" opacity=".45"/>
    <path fill="#E7E7E7" fill-rule="evenodd" d="M77.89 102.684c-2.304 0-4.35 1.104-5.65 2.813l-6.662-4.024c.412-.906.643-1.912.643-2.973s-.23-2.067-.643-2.973l6.662-4.024c1.3 1.71 3.346 2.813 5.65 2.813 3.927 0 7.11-3.205 7.11-7.158C85 83.205 81.817 80 77.89 80c-3.928 0-7.111 3.205-7.111 7.158 0 1.061.231 2.067.643 2.973l-6.662 4.024c-1.3-1.71-3.346-2.813-5.65-2.813-3.926 0-7.11 3.205-7.11 7.158 0 3.953 3.184 7.158 7.11 7.158 2.304 0 4.35-1.103 5.65-2.813l6.662 4.024c-.412.906-.643 1.912-.643 2.973 0 3.953 3.183 7.158 7.11 7.158 3.928 0 7.111-3.205 7.111-7.158 0-3.953-3.183-7.158-7.11-7.158" clip-rule="evenodd"/>
    <path stroke="#5DBD83" stroke-width="3" d="M49 54l102.459 29.57"/>
    <path fill="#5DBD83" fill-rule="evenodd" d="M14.859 20.981l-.323-.348c2.355-2.182 4.993-4.027 7.84-5.485l.217.423c-2.809 1.438-5.41 3.258-7.734 5.41M11.22 24.916l-.373-.294c.585-.74 1.208-1.466 1.85-2.155l.348.323c-.634.68-1.248 1.396-1.826 2.126" clip-rule="evenodd"/>
    <path fill="#5DBD83" fill-rule="evenodd" d="M71.435 46.218c0 18.345-14.872 33.217-33.217 33.217C19.872 79.435 5 64.563 5 46.218 5 27.872 19.872 13 38.218 13c18.345 0 33.217 14.872 33.217 33.218" clip-rule="evenodd"/>
    <path fill="#fff" fill-rule="evenodd" d="M68.477 46.218c0 16.712-13.547 30.26-30.26 30.26-16.711 0-30.259-13.548-30.259-30.26 0-16.712 13.548-30.259 30.26-30.259 16.712 0 30.26 13.547 30.26 30.26" clip-rule="evenodd"/>
    <mask id="pffo5flv9a" width="62" height="62" x="7" y="15" maskUnits="userSpaceOnUse">
        <path fill="#fff" fill-rule="evenodd" d="M7.958 46.217c0 16.712 13.548 30.26 30.26 30.26 16.712 0 30.26-13.548 30.26-30.26 0-16.712-13.548-30.26-30.26-30.26-16.712 0-30.26 13.548-30.26 30.26z" clip-rule="evenodd"/>
    </mask>
    <g mask="url(#pffo5flv9a)">
        <path fill="#913C38" fill-rule="evenodd" d="M49.953 53.272c1.224 2.832 2.487 5.708 3.765 8.535.634 1.42 1.285 2.828 1.949 4.222.655 1.4 1.34 2.773 2.042 4.12.357.659.703 1.345 1.079 1.967l.277.476.137.237c-.013-.022-.039-.038-.048-.047-.062-.039-.02.036.123.12.282.188.867.383 1.492.502.632.122 1.33.21 2.047.263 1.44.099 2.954.099 4.478.053l2.3-.097 2.296-.152.592 2.761c-3.133 1-6.26 1.72-9.681 1.938-.858.046-1.737.06-2.666-.025-.932-.093-1.911-.227-3.054-.72-.563-.26-1.194-.626-1.775-1.26-.145-.153-.28-.333-.41-.514l-.175-.265-.35-.525c-.478-.703-.884-1.403-1.319-2.106-1.648-2.818-3.117-5.665-4.497-8.546-1.375-2.888-2.663-5.777-3.87-8.758l5.268-2.18z" clip-rule="evenodd"/>
    </g>
    <mask id="i5g7607myb" width="62" height="62" x="7" y="15" maskUnits="userSpaceOnUse">
        <path fill="#fff" fill-rule="evenodd" d="M7.958 46.217c0 16.712 13.548 30.26 30.26 30.26 16.712 0 30.26-13.548 30.26-30.26 0-16.712-13.548-30.26-30.26-30.26-16.712 0-30.26 13.548-30.26 30.26" clip-rule="evenodd"/>
    </mask>
    <g mask="url(#i5g7607myb)">
        <path fill="#FEC5A4" fill-rule="evenodd" d="M43.206 52.88c-1.151 3.366 5.615 13.277 5.615 13.277l6.489-3.59s-1.766-5.042-3.897-9.035c-2.286-4.283-6.944-4.345-8.207-.652" clip-rule="evenodd"/>
    </g>
    <mask id="uk87maun6c" width="62" height="62" x="7" y="15" maskUnits="userSpaceOnUse">
        <path fill="#fff" fill-rule="evenodd" d="M7.958 46.217c0 16.712 13.548 30.26 30.26 30.26 16.712 0 30.26-13.548 30.26-30.26 0-16.712-13.548-30.26-30.26-30.26-16.712 0-30.26 13.548-30.26 30.26" clip-rule="evenodd"/>
    </mask>
    <g mask="url(#uk87maun6c)">
        <path fill="#606060" fill-rule="evenodd" d="M43.206 52.88c-1.151 3.366 5.615 13.277 5.615 13.277l6.489-3.59s-1.766-5.042-3.897-9.035c-2.286-4.283-6.944-4.345-8.207-.652" clip-rule="evenodd"/>
    </g>
    <mask id="ky4fa6hcbd" width="62" height="62" x="7" y="15" maskUnits="userSpaceOnUse">
        <path fill="#fff" fill-rule="evenodd" d="M7.958 46.217c0 16.712 13.548 30.26 30.26 30.26 16.712 0 30.26-13.548 30.26-30.26 0-16.712-13.548-30.26-30.26-30.26-16.712 0-30.26 13.548-30.26 30.26" clip-rule="evenodd"/>
    </mask>
    <g mask="url(#ky4fa6hcbd)">
        <path fill="#000" fill-rule="evenodd" d="M43.107 53.306c1.451-.698 3.125-.114 4.883 2.666 1.734 2.751 3.26 7.426 3.423 8.752l-2.593 1.434s-6.247-9.153-5.713-12.852" clip-rule="evenodd"/>
    </g>
    <mask id="jmo748f4ue" width="62" height="62" x="7" y="15" maskUnits="userSpaceOnUse">
        <path fill="#fff" fill-rule="evenodd" d="M7.958 46.217c0 16.712 13.548 30.26 30.26 30.26 16.712 0 30.26-13.548 30.26-30.26 0-16.712-13.548-30.26-30.26-30.26-16.712 0-30.26 13.548-30.26 30.26" clip-rule="evenodd"/>
    </mask>
    <g mask="url(#jmo748f4ue)">
        <path fill="#FEC5A4" fill-rule="evenodd" d="M47.583 50.307s4.834 11.36 1.35 32.514h-20.12c-.246-3.088 1.172-18.155-2.311-32.709 0 0 3.424-.691 6.706-.85 2.566-.124 6.285-.206 8.553 0 2.989.273 5.822 1.045 5.822 1.045" clip-rule="evenodd"/>
    </g>
    <mask id="a106yl2adf" width="62" height="62" x="7" y="15" maskUnits="userSpaceOnUse">
        <path fill="#fff" fill-rule="evenodd" d="M7.958 46.217c0 16.712 13.548 30.26 30.26 30.26 16.712 0 30.26-13.548 30.26-30.26 0-16.712-13.548-30.26-30.26-30.26-16.712 0-30.26 13.548-30.26 30.26" clip-rule="evenodd"/>
    </mask>
    <g mask="url(#a106yl2adf)">
        <path fill="#606060" fill-rule="evenodd" d="M47.583 50.307s4.834 11.36 1.35 32.514h-20.12c-.246-3.088 1.172-18.155-2.311-32.709 0 0 3.424-.691 6.706-.85 2.566-.124 6.285-.206 8.553 0 2.989.273 5.822 1.045 5.822 1.045" clip-rule="evenodd"/>
    </g>
    <mask id="r0x75oxarg" width="62" height="62" x="7" y="15" maskUnits="userSpaceOnUse">
        <path fill="#fff" fill-rule="evenodd" d="M7.958 46.217c0 16.712 13.548 30.26 30.26 30.26 16.712 0 30.26-13.548 30.26-30.26 0-16.712-13.548-30.26-30.26-30.26-16.712 0-30.26 13.548-30.26 30.26z" clip-rule="evenodd"/>
    </mask>
    <g mask="url(#r0x75oxarg)">
        <path fill="#fff" fill-rule="evenodd" d="M41.846 64.837l-4.322-4.624 3.153-4.64 4.321 4.623-3.152 4.64z" clip-rule="evenodd"/>
    </g>
    <mask id="5moae4j1fh" width="62" height="62" x="7" y="15" maskUnits="userSpaceOnUse">
        <path fill="#fff" fill-rule="evenodd" d="M7.958 46.217c0 16.712 13.548 30.26 30.26 30.26 16.712 0 30.26-13.548 30.26-30.26 0-16.712-13.548-30.26-30.26-30.26-16.712 0-30.26 13.548-30.26 30.26" clip-rule="evenodd"/>
    </mask>
    <g mask="url(#5moae4j1fh)">
        <path fill="#000" fill-rule="evenodd" d="M30.997 53.704c.418 2.395-.139 8.126-2.19 14.748-.184-5.097-.695-11.005-1.976-16.893v-.028c1.32-.136 3.767-.072 4.166 2.173" clip-rule="evenodd"/>
    </g>
    <mask id="9cvv61nqli" width="62" height="62" x="7" y="15" maskUnits="userSpaceOnUse">
        <path fill="#fff" fill-rule="evenodd" d="M7.958 46.217c0 16.712 13.548 30.26 30.26 30.26 16.712 0 30.26-13.548 30.26-30.26 0-16.712-13.548-30.26-30.26-30.26-16.712 0-30.26 13.548-30.26 30.26z" clip-rule="evenodd"/>
    </mask>
    <g mask="url(#9cvv61nqli)">
        <path fill="#913C38" fill-rule="evenodd" d="M33.721 39.63c.635 2.753 1.349 7.796-.513 9.632 0 0 1.177 2.774 6.29 2.781 4.1.007 2.263-2.78 2.263-2.78-3.094-.734-3.094-3.01-2.634-5.15l-5.406-4.482z" clip-rule="evenodd"/>
    </g>
    <mask id="mb2n2dcj1j" width="62" height="62" x="7" y="15" maskUnits="userSpaceOnUse">
        <path fill="#fff" fill-rule="evenodd" d="M7.958 46.217c0 16.712 13.548 30.26 30.26 30.26 16.712 0 30.26-13.548 30.26-30.26 0-16.712-13.548-30.26-30.26-30.26-16.712 0-30.26 13.548-30.26 30.26" clip-rule="evenodd"/>
    </mask>
    <g mask="url(#mb2n2dcj1j)">
        <path fill="#000" fill-rule="evenodd" d="M35.925 41.459l3.2 2.652c-.112.506-.193 1.019-.212 1.518-1.178-.17-2.833-1.457-3-2.684-.084-.612-.078-1.2.012-1.486" clip-rule="evenodd"/>
    </g>
    <mask id="jjyqvgo33k" width="62" height="62" x="7" y="15" maskUnits="userSpaceOnUse">
        <path fill="#fff" fill-rule="evenodd" d="M7.958 46.217c0 16.712 13.548 30.26 30.26 30.26 16.712 0 30.26-13.548 30.26-30.26 0-16.712-13.548-30.26-30.26-30.26-16.712 0-30.26 13.548-30.26 30.26" clip-rule="evenodd"/>
    </mask>
    <g mask="url(#jjyqvgo33k)">
        <path fill="#1A2E35" fill-rule="evenodd" d="M41.744 31.446c1.71 1.104 1.956 6.423-.546 7.183-2.501.76-2.692-9.275.546-7.183" clip-rule="evenodd"/>
    </g>
    <mask id="aupve69dil" width="62" height="62" x="7" y="15" maskUnits="userSpaceOnUse">
        <path fill="#fff" fill-rule="evenodd" d="M7.958 46.217c0 16.712 13.548 30.26 30.26 30.26 16.712 0 30.26-13.548 30.26-30.26 0-16.712-13.548-30.26-30.26-30.26-16.712 0-30.26 13.548-30.26 30.26" clip-rule="evenodd"/>
    </mask>
    <g mask="url(#aupve69dil)">
        <path fill="#913C38" fill-rule="evenodd" d="M32.518 36.747c1.146 3.564 1.635 5.702 3.947 7.154 3.478 2.184 7.55-.454 7.497-4.25-.048-3.417-1.914-8.67-5.845-9.329-3.872-.648-6.745 2.862-5.599 6.425" clip-rule="evenodd"/>
    </g>
    <mask id="abqhadquvm" width="62" height="62" x="7" y="15" maskUnits="userSpaceOnUse">
        <path fill="#fff" fill-rule="evenodd" d="M7.958 46.217c0 16.712 13.548 30.26 30.26 30.26 16.712 0 30.26-13.548 30.26-30.26 0-16.712-13.548-30.26-30.26-30.26-16.712 0-30.26 13.548-30.26 30.26" clip-rule="evenodd"/>
    </mask>
    <g mask="url(#abqhadquvm)">
        <path fill="#1A2E35" fill-rule="evenodd" d="M33.812 33.073c1.904 2.574 1.91 6.67.416 7.139-1.494.469-5.595-4.278-5.808-6.806-.171-2.034 1.182-2.034 1.182-2.034s-2.185-1.269.296-2.791c2.793-1.714 9.711-1.55 6.598-3.961 2.254-.747 3.128.69 2.987 1.564 1.66-.507 1.55-2.311 1.55-2.311s4.412 2.467 2.425 5.342c-1.988 2.876-5.647 3.784-9.646 3.858" clip-rule="evenodd"/>
    </g>
    <mask id="r3m68m8hin" width="62" height="62" x="7" y="15" maskUnits="userSpaceOnUse">
        <path fill="#fff" fill-rule="evenodd" d="M7.958 46.217c0 16.712 13.548 30.26 30.26 30.26 16.712 0 30.26-13.548 30.26-30.26 0-16.712-13.548-30.26-30.26-30.26-16.712 0-30.26 13.548-30.26 30.26" clip-rule="evenodd"/>
    </mask>
    <g mask="url(#r3m68m8hin)">
        <path fill="#913C38" fill-rule="evenodd" d="M31.89 41.09c.73.717 1.716 1.046 2.55 1.046 1.253 0 1.505-1.186.843-2.178-.595-.893-1.965-1.969-3.072-1.49-1.091.47-1.153 1.801-.32 2.621" clip-rule="evenodd"/>
    </g>
    <mask id="e1z1s1gteo" width="62" height="62" x="7" y="15" maskUnits="userSpaceOnUse">
        <path fill="#fff" fill-rule="evenodd" d="M7.958 46.217c0 16.712 13.548 30.26 30.26 30.26 16.712 0 30.26-13.548 30.26-30.26 0-16.712-13.548-30.26-30.26-30.26-16.712 0-30.26 13.548-30.26 30.26" clip-rule="evenodd"/>
    </mask>
    <g mask="url(#e1z1s1gteo)">
        <path fill="#1A2E35" fill-rule="evenodd" d="M38.297 36.548c.076.295.294.499.487.457.194-.043.29-.316.215-.61-.075-.294-.293-.498-.487-.456-.194.042-.29.315-.215.61" clip-rule="evenodd"/>
    </g>
    <mask id="5olkdkkobp" width="62" height="62" x="7" y="15" maskUnits="userSpaceOnUse">
        <path fill="#fff" fill-rule="evenodd" d="M7.958 46.217c0 16.712 13.548 30.26 30.26 30.26 16.712 0 30.26-13.548 30.26-30.26 0-16.712-13.548-30.26-30.26-30.26-16.712 0-30.26 13.548-30.26 30.26" clip-rule="evenodd"/>
    </mask>
    <g mask="url(#5olkdkkobp)">
        <path fill="#1A2E35" fill-rule="evenodd" d="M41.648 35.816c.075.294.293.498.487.456.194-.043.29-.315.215-.61-.075-.293-.293-.498-.487-.455-.194.042-.29.315-.215.61" clip-rule="evenodd"/>
    </g>
    <mask id="ogp5blg6eq" width="62" height="62" x="7" y="15" maskUnits="userSpaceOnUse">
        <path fill="#fff" fill-rule="evenodd" d="M7.958 46.217c0 16.712 13.548 30.26 30.26 30.26 16.712 0 30.26-13.548 30.26-30.26 0-16.712-13.548-30.26-30.26-30.26-16.712 0-30.26 13.548-30.26 30.26z" clip-rule="evenodd"/>
    </mask>
    <g mask="url(#ogp5blg6eq)">
        <path fill="#730C0C" fill-rule="evenodd" d="M40.62 36.195s1.108 1.55 2.059 2.206c-.4.6-1.349.574-1.349.574l-.71-2.78z" clip-rule="evenodd"/>
    </g>
    <mask id="bml0mgo4mr" width="62" height="62" x="7" y="15" maskUnits="userSpaceOnUse">
        <path fill="#fff" fill-rule="evenodd" d="M7.958 46.217c0 16.712 13.548 30.26 30.26 30.26 16.712 0 30.26-13.548 30.26-30.26 0-16.712-13.548-30.26-30.26-30.26-16.712 0-30.26 13.548-30.26 30.26" clip-rule="evenodd"/>
    </mask>
    <g mask="url(#bml0mgo4mr)">
        <path fill="#1A2E35" fill-rule="evenodd" d="M40.05 40.045c-1.03 0-1.658-.577-1.689-.606-.036-.034-.038-.09-.004-.126.033-.035.09-.038.126-.004.008.008.852.778 2.15.493.05-.011.095.02.106.068.01.048-.02.096-.068.106-.22.049-.428.07-.622.07" clip-rule="evenodd"/>
    </g>
    <mask id="mbvrj7xi1s" width="62" height="62" x="7" y="15" maskUnits="userSpaceOnUse">
        <path fill="#fff" fill-rule="evenodd" d="M7.958 46.217c0 16.712 13.548 30.26 30.26 30.26 16.712 0 30.26-13.548 30.26-30.26 0-16.712-13.548-30.26-30.26-30.26-16.712 0-30.26 13.548-30.26 30.26" clip-rule="evenodd"/>
    </mask>
    <g mask="url(#mbvrj7xi1s)">
        <path fill="#1A2E35" fill-rule="evenodd" d="M36.97 35.702c-.023 0-.048-.004-.07-.014-.091-.04-.132-.145-.093-.235.388-.893 1.204-1.022 1.24-1.027.094-.015.187.053.201.15.014.097-.053.188-.15.202-.026.005-.657.111-.964.817-.03.068-.095.107-.164.107" clip-rule="evenodd"/>
    </g>
    <mask id="e46tkdviyt" width="62" height="62" x="7" y="15" maskUnits="userSpaceOnUse">
        <path fill="#fff" fill-rule="evenodd" d="M7.958 46.217c0 16.712 13.548 30.26 30.26 30.26 16.712 0 30.26-13.548 30.26-30.26 0-16.712-13.548-30.26-30.26-30.26-16.712 0-30.26 13.548-30.26 30.26" clip-rule="evenodd"/>
    </mask>
    <g mask="url(#e46tkdviyt)">
        <path fill="#1A2E35" fill-rule="evenodd" d="M42.779 34.358c-.051 0-.102-.022-.137-.064-.513-.615-1.161-.572-1.188-.569-.102.007-.184-.065-.192-.163-.008-.097.063-.183.161-.192.034-.004.855-.069 1.493.696.063.075.053.188-.023.25-.033.028-.074.042-.114.042" clip-rule="evenodd"/>
    </g>
    <mask id="y609qrij4u" width="62" height="62" x="7" y="15" maskUnits="userSpaceOnUse">
        <path fill="#fff" fill-rule="evenodd" d="M7.958 46.217c0 16.712 13.548 30.26 30.26 30.26 16.712 0 30.26-13.548 30.26-30.26 0-16.712-13.548-30.26-30.26-30.26-16.712 0-30.26 13.548-30.26 30.26z" clip-rule="evenodd"/>
    </mask>
    <g mask="url(#y609qrij4u)">
        <path fill="#913C38" fill-rule="evenodd" d="M30.473 55.538l-.773 1.679c-.26.575-.51 1.157-.755 1.74-.499 1.165-.963 2.34-1.404 3.518-.433 1.179-.848 2.36-1.186 3.544-.181.593-.325 1.182-.481 1.772l-.199.882-.025.11-.012.056v-.004c-.002-.01-.008-.02-.008-.02-.01-.006-.011.017-.014.05-.01.15.107.564.324.988.216.431.513.898.851 1.362.672.939 1.496 1.87 2.357 2.784 1.738 1.812 3.662 3.607 5.589 5.299l-1.578 2.342c-2.424-1.316-4.69-2.77-6.869-4.518-1.087-.873-2.142-1.815-3.15-2.92-.498-.56-.985-1.164-1.44-1.873-.444-.716-.897-1.526-1.111-2.689-.05-.293-.086-.6-.082-.937-.003-.165.01-.339.028-.513l.023-.195.017-.134.146-1.072c.12-.703.232-1.413.397-2.097.3-1.383.67-2.731 1.1-4.052.421-1.325.9-2.622 1.422-3.898.269-.635.542-1.268.829-1.896.287-.64.575-1.235.928-1.906l5.076 2.598z" clip-rule="evenodd"/>
    </g>
    <mask id="c2w7g7w6zv" width="62" height="62" x="7" y="15" maskUnits="userSpaceOnUse">
        <path fill="#fff" fill-rule="evenodd" d="M7.958 46.217c0 16.712 13.548 30.26 30.26 30.26 16.712 0 30.26-13.548 30.26-30.26 0-16.712-13.548-30.26-30.26-30.26-16.712 0-30.26 13.548-30.26 30.26" clip-rule="evenodd"/>
    </mask>
    <g mask="url(#c2w7g7w6zv)">
        <path fill="#FEC5A4" fill-rule="evenodd" d="M26.501 50.112c-3.54.518-7.19 13.555-7.19 13.555l8.56 3.256s2.151-5.604 3.623-9.96c1.543-4.564-1.195-7.406-4.993-6.851" clip-rule="evenodd"/>
    </g>
    <mask id="70x981zusw" width="62" height="62" x="7" y="15" maskUnits="userSpaceOnUse">
        <path fill="#fff" fill-rule="evenodd" d="M7.958 46.217c0 16.712 13.548 30.26 30.26 30.26 16.712 0 30.26-13.548 30.26-30.26 0-16.712-13.548-30.26-30.26-30.26-16.712 0-30.26 13.548-30.26 30.26" clip-rule="evenodd"/>
    </mask>
    <g mask="url(#70x981zusw)">
        <path fill="#606060" fill-rule="evenodd" d="M26.501 50.112c-3.54.518-7.19 13.555-7.19 13.555l8.56 3.256s2.151-5.604 3.623-9.96c1.543-4.564-1.195-7.406-4.993-6.851" clip-rule="evenodd"/>
    </g>
    <path fill="#5DBD83" fill-rule="evenodd" d="M190.435 87.218c0 18.345-14.872 33.217-33.217 33.217-18.346 0-33.218-14.872-33.218-33.217C124 68.872 138.872 54 157.218 54c18.345 0 33.217 14.872 33.217 33.218" clip-rule="evenodd"/>
    <path fill="#fff" fill-rule="evenodd" d="M187.477 87.218c0 16.712-13.547 30.26-30.259 30.26s-30.26-13.548-30.26-30.26c0-16.712 13.548-30.259 30.26-30.259 16.712 0 30.259 13.547 30.259 30.26" clip-rule="evenodd"/>
    <mask id="is5hq726ox" width="62" height="62" x="126" y="56" maskUnits="userSpaceOnUse">
        <path fill="#fff" fill-rule="evenodd" d="M126.505 87.218c0 16.712 13.547 30.26 30.26 30.26 16.711 0 30.259-13.548 30.259-30.26 0-16.712-13.548-30.259-30.259-30.259-16.713 0-30.26 13.547-30.26 30.26z" clip-rule="evenodd"/>
    </mask>
    <g mask="url(#is5hq726ox)">
        <path fill="#FF8C7B" fill-rule="evenodd" d="M147.595 95.848c-.08 1.406-.244 2.693-.427 4.028-.184 1.324-.432 2.637-.716 3.947-.553 2.621-1.317 5.222-2.371 7.757l-.424.945-.106.236-.054.117c-.017.039-.031.072-.073.152-.134.27-.308.554-.553.832-.248.275-.558.542-.923.728-.357.186-.75.308-1.1.345-.714.084-1.268-.042-1.736-.18-.917-.302-1.572-.714-2.19-1.134-.606-.428-1.148-.879-1.665-1.341-2.031-1.88-3.716-3.887-5.267-6.074l1.634-1.381c.914.857 1.867 1.725 2.818 2.548.947.832 1.926 1.617 2.91 2.319.489.35.984.677 1.469.945.475.268.967.486 1.295.547.154.031.254.008.183-.002-.066-.019-.302.092-.359.164-.035.032-.04.037-.036.015l.148-.387.324-.847c.804-2.296 1.411-4.707 1.881-7.158.244-1.223.416-2.466.601-3.703.177-1.228.318-2.512.426-3.688l4.311.27z" clip-rule="evenodd"/>
    </g>
    <mask id="elz4zzcr8y" width="62" height="62" x="126" y="56" maskUnits="userSpaceOnUse">
        <path fill="#fff" fill-rule="evenodd" d="M126.505 87.218c0 16.712 13.547 30.26 30.26 30.26 16.711 0 30.259-13.548 30.259-30.26 0-16.712-13.548-30.259-30.259-30.259-16.713 0-30.26 13.547-30.26 30.26" clip-rule="evenodd"/>
    </mask>
    <g mask="url(#elz4zzcr8y)">
        <path fill="#1A2E35" fill-rule="evenodd" d="M144.655 90.7c-1.742.442-2.959 7.606-2.959 7.606l4.797 3.263s4.6-7.227 3.26-9.142c-1.394-1.993-2.558-2.375-5.098-1.728" clip-rule="evenodd"/>
    </g>
    <mask id="ckgtqashuz" width="62" height="62" x="126" y="56" maskUnits="userSpaceOnUse">
        <path fill="#fff" fill-rule="evenodd" d="M126.505 87.218c0 16.712 13.547 30.26 30.26 30.26 16.711 0 30.259-13.548 30.259-30.26 0-16.712-13.548-30.259-30.259-30.259-16.713 0-30.26 13.547-30.26 30.26z" clip-rule="evenodd"/>
    </mask>
    <g mask="url(#ckgtqashuz)">
        <path fill="#000" fill-rule="evenodd" d="M144.811 92.3l-1.337 7.222 2.696 1.828-1.359-9.05z" clip-rule="evenodd"/>
    </g>
    <mask id="spgb7tmunA" width="62" height="62" x="126" y="56" maskUnits="userSpaceOnUse">
        <path fill="#fff" fill-rule="evenodd" d="M126.505 87.218c0 16.712 13.547 30.26 30.26 30.26 16.711 0 30.259-13.548 30.259-30.26 0-16.712-13.548-30.259-30.259-30.259-16.713 0-30.26 13.547-30.26 30.26z" clip-rule="evenodd"/>
    </mask>
    <g mask="url(#spgb7tmunA)">
        <path fill="#FF8C7B" fill-rule="evenodd" d="M131.672 104.557l-2.282-3.604-1.294 4.096s1.871 1.963 3.563 1.495l.013-1.987z" clip-rule="evenodd"/>
    </g>
    <mask id="cbhtf62f7B" width="62" height="62" x="126" y="56" maskUnits="userSpaceOnUse">
        <path fill="#fff" fill-rule="evenodd" d="M126.505 87.218c0 16.712 13.547 30.26 30.26 30.26 16.711 0 30.259-13.548 30.259-30.26 0-16.712-13.548-30.259-30.259-30.259-16.713 0-30.26 13.547-30.26 30.26z" clip-rule="evenodd"/>
    </mask>
    <g mask="url(#cbhtf62f7B)">
        <path fill="#FF8C7B" fill-rule="evenodd" d="M126.045 99.76l-.898 3.488 2.949 1.8 1.294-4.096-3.345-1.192z" clip-rule="evenodd"/>
    </g>
    <mask id="7b7cgpqx3C" width="62" height="62" x="126" y="56" maskUnits="userSpaceOnUse">
        <path fill="#fff" fill-rule="evenodd" d="M126.505 87.218c0 16.712 13.547 30.26 30.26 30.26 16.711 0 30.259-13.548 30.259-30.26 0-16.712-13.548-30.259-30.259-30.259-16.713 0-30.26 13.547-30.26 30.26" clip-rule="evenodd"/>
    </mask>
    <g mask="url(#7b7cgpqx3C)">
        <path fill="#1A2E35" fill-rule="evenodd" d="M144.655 90.7s-2.013.708 2.018 25.493h17.155c-.288-6.982-.296-11.287 3.041-25.616 0 0-3.594-.782-7.285-.96-2.886-.139-5.252-.23-7.79 0-3.345.306-7.139 1.083-7.139 1.083" clip-rule="evenodd"/>
    </g>
    <mask id="71o1glfp9D" width="62" height="62" x="126" y="56" maskUnits="userSpaceOnUse">
        <path fill="#fff" fill-rule="evenodd" d="M126.505 87.218c0 16.712 13.547 30.26 30.26 30.26 16.711 0 30.259-13.548 30.259-30.26 0-16.712-13.548-30.259-30.259-30.259-16.713 0-30.26 13.547-30.26 30.26" clip-rule="evenodd"/>
    </mask>
    <g mask="url(#71o1glfp9D)">
        <path fill="#1A2E35" fill-rule="evenodd" d="M148.457 72.417c6.139-9.832 24.331-1.773 14.833 7.906-12.69 12.931-14.833-7.906-14.833-7.906" clip-rule="evenodd"/>
    </g>
    <mask id="ivbmowp3bE" width="62" height="62" x="126" y="56" maskUnits="userSpaceOnUse">
        <path fill="#fff" fill-rule="evenodd" d="M126.505 87.218c0 16.712 13.547 30.26 30.26 30.26 16.711 0 30.259-13.548 30.259-30.26 0-16.712-13.548-30.259-30.259-30.259-16.713 0-30.26 13.547-30.26 30.26" clip-rule="evenodd"/>
    </mask>
    <g mask="url(#ivbmowp3bE)">
        <path fill="#1A2E35" fill-rule="evenodd" d="M152.518 86.324c-.683 0-1.286-.16-1.809-.484-3.813-2.355-1.904-12.367-1.821-12.792.019-.096.114-.16.208-.14.097.019.16.112.141.209-.02.101-1.946 10.194 1.659 12.42 1.745 1.078 4.542.148 8.314-2.762.079-.06.19-.046.249.031.061.078.046.19-.031.25-2.819 2.175-5.133 3.268-6.91 3.268" clip-rule="evenodd"/>
    </g>
    <mask id="czo4l6h9aF" width="62" height="62" x="126" y="56" maskUnits="userSpaceOnUse">
        <path fill="#fff" fill-rule="evenodd" d="M126.505 87.218c0 16.712 13.547 30.26 30.26 30.26 16.711 0 30.259-13.548 30.259-30.26 0-16.712-13.548-30.259-30.259-30.259-16.713 0-30.26 13.547-30.26 30.26" clip-rule="evenodd"/>
    </mask>
    <g mask="url(#czo4l6h9aF)">
        <path fill="#1A2E35" fill-rule="evenodd" d="M159.975 69.639c1.916-5.737 12.067-3.904 8.49 2.201-3.787 6.464-8.49-2.201-8.49-2.201" clip-rule="evenodd"/>
    </g>
    <mask id="hsoqft6xeG" width="62" height="62" x="126" y="56" maskUnits="userSpaceOnUse">
        <path fill="#fff" fill-rule="evenodd" d="M126.505 87.218c0 16.712 13.547 30.26 30.26 30.26 16.711 0 30.259-13.548 30.259-30.26 0-16.712-13.548-30.259-30.259-30.259-16.713 0-30.26 13.547-30.26 30.26z" clip-rule="evenodd"/>
    </mask>
    <g mask="url(#hsoqft6xeG)">
        <path fill="#FF8C7B" fill-rule="evenodd" d="M158.812 80.846c-.491 2.506-.981 7.099.772 8.771 0 0-.685 2.543-5.342 2.543-5.122 0-2.448-2.542-2.448-2.542 2.795-.668 2.723-2.742 2.236-4.69l4.782-4.082z" clip-rule="evenodd"/>
    </g>
    <mask id="qaxmhasznH" width="62" height="62" x="126" y="56" maskUnits="userSpaceOnUse">
        <path fill="#fff" fill-rule="evenodd" d="M126.505 87.218c0 16.712 13.547 30.26 30.26 30.26 16.711 0 30.259-13.548 30.259-30.26 0-16.712-13.548-30.259-30.259-30.259-16.713 0-30.26 13.547-30.26 30.26" clip-rule="evenodd"/>
    </mask>
    <g mask="url(#qaxmhasznH)">
        <path fill="#FEA180" fill-rule="evenodd" d="M153.887 92.156s1.173 1.12 1.688 2.596c.896-.316 5.522-2.86 5.615-5.22-.564-.186-1.872-.395-1.872-.395s-1.924 1.99-5.431 3.019" clip-rule="evenodd"/>
    </g>
    <mask id="hislztsnbI" width="62" height="62" x="126" y="56" maskUnits="userSpaceOnUse">
        <path fill="#fff" fill-rule="evenodd" d="M126.505 87.218c0 16.712 13.547 30.26 30.26 30.26 16.711 0 30.259-13.548 30.259-30.26 0-16.712-13.548-30.259-30.259-30.259-16.713 0-30.26 13.547-30.26 30.26" clip-rule="evenodd"/>
    </mask>
    <g mask="url(#hislztsnbI)">
        <path fill="#FEA180" fill-rule="evenodd" d="M153.887 92.156s-1.022 1.1-1.687 2.596c-1.282-.804-2.643-2.573-1.658-5.065.702-.312 2.133-.365 2.133-.365s-2.294 1.805 1.212 2.834" clip-rule="evenodd"/>
    </g>
    <mask id="fat82k4o8J" width="62" height="62" x="126" y="56" maskUnits="userSpaceOnUse">
        <path fill="#fff" fill-rule="evenodd" d="M126.505 87.218c0 16.712 13.547 30.26 30.26 30.26 16.711 0 30.259-13.548 30.259-30.26 0-16.712-13.548-30.259-30.259-30.259-16.713 0-30.26 13.547-30.26 30.26" clip-rule="evenodd"/>
    </mask>
    <g mask="url(#fat82k4o8J)">
        <path fill="#000" fill-rule="evenodd" d="M156.863 82.512l-2.83 2.415c.116.46.207.928.24 1.382 1.068-.154 2.534-1.326 2.648-2.444.056-.557.033-1.094-.058-1.353" clip-rule="evenodd"/>
    </g>
    <mask id="dtji5rgv4K" width="62" height="62" x="126" y="56" maskUnits="userSpaceOnUse">
        <path fill="#fff" fill-rule="evenodd" d="M126.505 87.218c0 16.712 13.547 30.26 30.26 30.26 16.711 0 30.259-13.548 30.259-30.26 0-16.712-13.548-30.259-30.259-30.259-16.713 0-30.26 13.547-30.26 30.26" clip-rule="evenodd"/>
    </mask>
    <g mask="url(#dtji5rgv4K)">
        <path fill="#FF8C7B" fill-rule="evenodd" d="M161.456 76.248c-.983 4.076-1.312 5.821-3.767 7.568-3.694 2.626-8.485.528-8.739-3.76-.229-3.858 1.417-9.874 5.74-10.8 4.259-.91 7.749 2.917 6.766 6.992" clip-rule="evenodd"/>
    </g>
    <mask id="rc3486pyvL" width="62" height="62" x="126" y="56" maskUnits="userSpaceOnUse">
        <path fill="#fff" fill-rule="evenodd" d="M126.505 87.218c0 16.712 13.547 30.26 30.26 30.26 16.711 0 30.259-13.548 30.259-30.26 0-16.712-13.548-30.259-30.259-30.259-16.713 0-30.26 13.547-30.26 30.26" clip-rule="evenodd"/>
    </mask>
    <g mask="url(#rc3486pyvL)">
        <path fill="#1A2E35" fill-rule="evenodd" d="M154.531 75.692c-.06.335-.286.576-.505.537-.219-.04-.349-.342-.289-.678.059-.335.285-.576.504-.537.219.039.349.342.29.678" clip-rule="evenodd"/>
    </g>
    <mask id="7djxhe4ulM" width="62" height="62" x="126" y="56" maskUnits="userSpaceOnUse">
        <path fill="#fff" fill-rule="evenodd" d="M126.505 87.218c0 16.712 13.547 30.26 30.26 30.26 16.711 0 30.259-13.548 30.259-30.26 0-16.712-13.548-30.259-30.259-30.259-16.713 0-30.26 13.547-30.26 30.26" clip-rule="evenodd"/>
    </mask>
    <g mask="url(#7djxhe4ulM)">
        <path fill="#1A2E35" fill-rule="evenodd" d="M150.739 75.022c-.06.335-.286.576-.505.537-.219-.04-.349-.343-.289-.678.059-.335.285-.576.504-.537.219.039.349.342.29.678" clip-rule="evenodd"/>
    </g>
    <mask id="i6yo2ki0aN" width="62" height="62" x="126" y="56" maskUnits="userSpaceOnUse">
        <path fill="#fff" fill-rule="evenodd" d="M126.505 87.218c0 16.712 13.547 30.26 30.26 30.26 16.711 0 30.259-13.548 30.259-30.26 0-16.712-13.548-30.259-30.259-30.259-16.713 0-30.26 13.547-30.26 30.26" clip-rule="evenodd"/>
    </mask>
    <g mask="url(#i6yo2ki0aN)">
        <path fill="#1A2E35" fill-rule="evenodd" d="M150.543 74.38l-.765-.376s.302.703.765.375" clip-rule="evenodd"/>
    </g>
    <mask id="qdods4yz8O" width="62" height="62" x="126" y="56" maskUnits="userSpaceOnUse">
        <path fill="#fff" fill-rule="evenodd" d="M126.505 87.218c0 16.712 13.547 30.26 30.26 30.26 16.711 0 30.259-13.548 30.259-30.26 0-16.712-13.548-30.259-30.259-30.259-16.713 0-30.26 13.547-30.26 30.26z" clip-rule="evenodd"/>
    </mask>
    <g mask="url(#qdods4yz8O)">
        <path fill="#FF5551" fill-rule="evenodd" d="M152.111 76.375s-.826 1.343-1.575 1.93c.369.491 1.156.436 1.156.436l.419-2.366z" clip-rule="evenodd"/>
    </g>
    <mask id="6kawmk4d1P" width="62" height="62" x="126" y="56" maskUnits="userSpaceOnUse">
        <path fill="#fff" fill-rule="evenodd" d="M126.505 87.218c0 16.712 13.547 30.26 30.26 30.26 16.711 0 30.259-13.548 30.259-30.26 0-16.712-13.548-30.259-30.259-30.259-16.713 0-30.26 13.547-30.26 30.26" clip-rule="evenodd"/>
    </mask>
    <g mask="url(#6kawmk4d1P)">
        <path fill="#1A2E35" fill-rule="evenodd" d="M153.21 80.324c1.226 0 1.927-.732 1.96-.767.038-.04.036-.103-.004-.141-.04-.038-.103-.036-.141.004-.009.01-.883.915-2.351.655-.055-.008-.107.027-.116.081-.01.055.026.107.081.116.201.036.391.052.571.052" clip-rule="evenodd"/>
    </g>
    <mask id="ch7o6rsdhQ" width="62" height="62" x="126" y="56" maskUnits="userSpaceOnUse">
        <path fill="#fff" fill-rule="evenodd" d="M126.505 87.218c0 16.712 13.547 30.26 30.26 30.26 16.711 0 30.259-13.548 30.259-30.26 0-16.712-13.548-30.259-30.259-30.259-16.713 0-30.26 13.547-30.26 30.26" clip-rule="evenodd"/>
    </mask>
    <g mask="url(#ch7o6rsdhQ)">
        <path fill="#1A2E35" fill-rule="evenodd" d="M163.118 77.462c-2.104 3.499-7.74-3.821-8.673-7.363-1.383.686-4.224 2.704-4.285 1.395-.061-1.31 4.789-3.58 7.374-3.177s7.034 6.733 5.584 9.145" clip-rule="evenodd"/>
    </g>
    <mask id="ls3dx1c78R" width="62" height="62" x="126" y="56" maskUnits="userSpaceOnUse">
        <path fill="#fff" fill-rule="evenodd" d="M126.505 87.218c0 16.712 13.547 30.26 30.26 30.26 16.711 0 30.259-13.548 30.259-30.26 0-16.712-13.548-30.259-30.259-30.259-16.713 0-30.26 13.547-30.26 30.26" clip-rule="evenodd"/>
    </mask>
    <g mask="url(#ls3dx1c78R)">
        <path fill="#FF8C7B" fill-rule="evenodd" d="M162.102 79.506c-.328.805-.997 1.383-1.66 1.65-.996.4-1.612-.462-1.433-1.465.16-.901.873-2.197 1.92-2.171 1.032.026 1.548 1.066 1.173 1.986" clip-rule="evenodd"/>
    </g>
    <mask id="p9w9ws3pwS" width="62" height="62" x="126" y="56" maskUnits="userSpaceOnUse">
        <path fill="#fff" fill-rule="evenodd" d="M126.505 87.218c0 16.712 13.547 30.26 30.26 30.26 16.711 0 30.259-13.548 30.259-30.26 0-16.712-13.548-30.259-30.259-30.259-16.713 0-30.26 13.547-30.26 30.26" clip-rule="evenodd"/>
    </mask>
    <g mask="url(#p9w9ws3pwS)">
        <path fill="#1A2E35" fill-rule="evenodd" d="M155.837 74.236c.031 0 .062-.008.092-.023.098-.05.137-.17.086-.269-.503-.986-1.421-1.093-1.459-1.097-.111-.012-.209.068-.22.178-.012.11.067.208.177.22.03.003.745.094 1.146.881.036.07.106.11.178.11" clip-rule="evenodd"/>
    </g>
    <mask id="1gbii66ysT" width="62" height="62" x="126" y="56" maskUnits="userSpaceOnUse">
        <path fill="#fff" fill-rule="evenodd" d="M126.505 87.218c0 16.712 13.547 30.26 30.26 30.26 16.711 0 30.259-13.548 30.259-30.26 0-16.712-13.548-30.259-30.259-30.259-16.713 0-30.26 13.547-30.26 30.26" clip-rule="evenodd"/>
    </mask>
    <g mask="url(#1gbii66ysT)">
        <path fill="#1A2E35" fill-rule="evenodd" d="M149.833 73.573c.053 0 .106-.021.145-.062.617-.645 1.343-.518 1.35-.516.108.02.213-.052.233-.16.021-.109-.05-.213-.159-.234-.039-.006-.949-.167-1.713.633-.077.08-.074.207.006.283.039.037.089.056.138.056" clip-rule="evenodd"/>
    </g>
    <mask id="xxogtjktpU" width="62" height="62" x="126" y="56" maskUnits="userSpaceOnUse">
        <path fill="#fff" fill-rule="evenodd" d="M126.505 87.218c0 16.712 13.547 30.26 30.26 30.26 16.711 0 30.259-13.548 30.259-30.26 0-16.712-13.548-30.259-30.259-30.259-16.713 0-30.26 13.547-30.26 30.26" clip-rule="evenodd"/>
    </mask>
    <g mask="url(#xxogtjktpU)">
        <path fill="#1A2E35" fill-rule="evenodd" d="M164.085 115.188l.438 1.535c.061.119-.08.241-.279.241h-17.656c-.155 0-.283-.076-.293-.173l-.154-1.536c-.011-.106.123-.196.292-.196h17.372c.128 0 .241.052.28.129" clip-rule="evenodd"/>
    </g>
    <mask id="may3yxuo9V" width="62" height="62" x="126" y="56" maskUnits="userSpaceOnUse">
        <path fill="#fff" fill-rule="evenodd" d="M126.505 87.218c0 16.712 13.547 30.26 30.26 30.26 16.711 0 30.259-13.548 30.259-30.26 0-16.712-13.548-30.259-30.259-30.259-16.713 0-30.26 13.547-30.26 30.26" clip-rule="evenodd"/>
    </mask>
    <g mask="url(#may3yxuo9V)">
        <path fill="#5DBD83" fill-rule="evenodd" d="M161.752 117.129h.465c.093 0 .163-.048.157-.106l-.219-1.995c-.006-.058-.087-.106-.179-.106h-.466c-.092 0-.163.048-.157.106l.218 1.995c.007.058.088.106.181.106" clip-rule="evenodd"/>
    </g>
    <mask id="wq6nai43nW" width="62" height="62" x="126" y="56" maskUnits="userSpaceOnUse">
        <path fill="#fff" fill-rule="evenodd" d="M126.505 87.218c0 16.712 13.547 30.26 30.26 30.26 16.711 0 30.259-13.548 30.259-30.26 0-16.712-13.548-30.259-30.259-30.259-16.713 0-30.26 13.547-30.26 30.26" clip-rule="evenodd"/>
    </mask>
    <g mask="url(#wq6nai43nW)">
        <path fill="#5DBD83" fill-rule="evenodd" d="M147.896 117.129h.465c.093 0 .163-.048.157-.106l-.219-1.995c-.006-.058-.087-.106-.179-.106h-.466c-.092 0-.163.048-.156.106l.217 1.995c.007.058.088.106.181.106" clip-rule="evenodd"/>
    </g>
    <mask id="9ufr4nbnfX" width="62" height="62" x="126" y="56" maskUnits="userSpaceOnUse">
        <path fill="#fff" fill-rule="evenodd" d="M126.505 87.218c0 16.712 13.547 30.26 30.26 30.26 16.711 0 30.259-13.548 30.259-30.26 0-16.712-13.548-30.259-30.259-30.259-16.713 0-30.26 13.547-30.26 30.26" clip-rule="evenodd"/>
    </mask>
    <g mask="url(#9ufr4nbnfX)">
        <path fill="#5DBD83" fill-rule="evenodd" d="M154.824 117.129h.465c.093 0 .163-.048.157-.106l-.218-1.995c-.006-.058-.088-.106-.18-.106h-.466c-.092 0-.163.048-.156.106l.218 1.995c.006.058.087.106.18.106" clip-rule="evenodd"/>
    </g>
    <mask id="e07ldo3plY" width="62" height="62" x="126" y="56" maskUnits="userSpaceOnUse">
        <path fill="#fff" fill-rule="evenodd" d="M126.505 87.218c0 16.712 13.547 30.26 30.26 30.26 16.711 0 30.259-13.548 30.259-30.26 0-16.712-13.548-30.259-30.259-30.259-16.713 0-30.26 13.547-30.26 30.26" clip-rule="evenodd"/>
    </mask>
    <g mask="url(#e07ldo3plY)">
        <path fill="#1A2E35" fill-rule="evenodd" d="M154.334 75.051l-.764-.375s.302.703.764.375" clip-rule="evenodd"/>
    </g>
    <mask id="xxsswmbycZ" width="62" height="62" x="126" y="56" maskUnits="userSpaceOnUse">
        <path fill="#fff" fill-rule="evenodd" d="M126.505 87.218c0 16.712 13.547 30.26 30.26 30.26 16.711 0 30.259-13.548 30.259-30.26 0-16.712-13.548-30.259-30.259-30.259-16.713 0-30.26 13.547-30.26 30.26z" clip-rule="evenodd"/>
    </mask>
    <g mask="url(#xxsswmbycZ)">
        <path fill="#FF8C7B" fill-rule="evenodd" d="M168.723 95.092c.96 2.334 1.745 4.636 2.432 7.03.675 2.391 1.267 4.814 1.553 7.384l.096.967.048.992.011.248.003.062.001.097-.008.266c-.028.352-.108.685-.219.981-.228.583-.544 1.015-.854 1.349-.63.67-1.256 1.069-1.867 1.427-.611.353-1.224.62-1.829.867-2.429.955-4.824 1.486-7.313 1.831l-.492-2.082c2.182-.835 4.413-1.743 6.364-2.81.484-.267.944-.557 1.352-.847.404-.287.761-.61.925-.851.086-.119.104-.2.086-.183-.011.011-.029.048-.035.099-.004.013-.006.026-.006.039l.001.01-.003-.024-.006-.051-.022-.203-.087-.812-.133-.826c-.081-.548-.211-1.111-.317-1.666-.137-.559-.25-1.116-.407-1.676-.28-1.119-.611-2.241-.953-3.358-.709-2.22-1.493-4.481-2.319-6.626l3.998-1.634z" clip-rule="evenodd"/>
    </g>
    <mask id="e8nx63u0vaa" width="62" height="62" x="126" y="56" maskUnits="userSpaceOnUse">
        <path fill="#fff" fill-rule="evenodd" d="M126.505 87.218c0 16.712 13.547 30.26 30.26 30.26 16.711 0 30.259-13.548 30.259-30.26 0-16.712-13.548-30.259-30.259-30.259-16.713 0-30.26 13.547-30.26 30.26" clip-rule="evenodd"/>
    </mask>
    <g mask="url(#e8nx63u0vaa)">
        <path fill="#1A2E35" fill-rule="evenodd" d="M166.869 90.577c1.719.523 3.783 6.44 3.783 6.44l-6.668 4.768s-2.432-4.94-1.709-7.162c.752-2.313 2.633-4.642 4.594-4.046" clip-rule="evenodd"/>
    </g>
    <mask id="neg89urf8ab" width="62" height="62" x="126" y="56" maskUnits="userSpaceOnUse">
        <path fill="#fff" fill-rule="evenodd" d="M126.505 87.218c0 16.712 13.547 30.26 30.26 30.26 16.711 0 30.259-13.548 30.259-30.26 0-16.712-13.548-30.259-30.259-30.259-16.713 0-30.26 13.547-30.26 30.26z" clip-rule="evenodd"/>
    </mask>
    <g mask="url(#neg89urf8ab)">
        <path fill="#FF8C7B" fill-rule="evenodd" d="M160.559 116.309l-4.555-.284 2.559 3.45s2.687-.365 3.301-2.01l-1.305-1.156z" clip-rule="evenodd"/>
    </g>
    <mask id="ixfpj216iac" width="62" height="62" x="126" y="56" maskUnits="userSpaceOnUse">
        <path fill="#fff" fill-rule="evenodd" d="M126.505 87.218c0 16.712 13.547 30.26 30.26 30.26 16.711 0 30.259-13.548 30.259-30.26 0-16.712-13.548-30.259-30.259-30.259-16.713 0-30.26 13.547-30.26 30.26z" clip-rule="evenodd"/>
    </mask>
    <g mask="url(#ixfpj216iac)">
        <path fill="#FF8C7B" fill-rule="evenodd" d="M153.077 118.036l2.298 2.772 3.188-1.333-2.559-3.45-2.927 2.011z" clip-rule="evenodd"/>
    </g>
</svg>
