<svg xmlns="http://www.w3.org/2000/svg" width="24" height="24" fill="none" viewBox="0 0 24 24">
    <path fill="#2E3537" fill-rule="evenodd" d="M20.27 3.032l.715.716c.65.65 1.007 1.515 1.007 2.435 0 .919-.36 1.784-1.01 2.435l-4.762 4.761c-.108.112-.253.166-.394.166-.14 0-.286-.058-.393-.166-.22-.219-.22-.571 0-.79l4.762-4.762c.906-.907.906-2.381 0-3.288l-.717-.717c-.907-.906-2.38-.906-3.288 0L11.43 8.584c-.907.907-.907 2.381 0 3.288.219.22.219.572 0 .791-.22.22-.572.22-.791 0-1.342-1.341-1.342-3.528 0-4.87L15.4 3.033c1.341-1.342 3.527-1.342 4.87 0zm-7.703 7.764c-.22-.22-.22-.572 0-.791.22-.22.576-.22.791 0 1.342 1.341 1.342 3.528 0 4.87l-4.762 4.761c-.67.671-1.553 1.006-2.435 1.006-.881 0-1.763-.335-2.434-1.006l-.717-.716C2.356 18.27 2 17.404 2 16.485c0-.92.36-1.785 1.01-2.435l4.762-4.762c.22-.22.572-.22.791 0 .22.22.22.572 0 .791l-4.762 4.762c-.907.907-.907 2.381 0 3.288l.717.716c.906.907 2.38.907 3.287 0l4.762-4.762c.907-.906.907-2.38 0-3.287z" clip-rule="evenodd"/>
</svg>
