<svg xmlns="http://www.w3.org/2000/svg" width="32" height="32" fill="none" viewBox="0 0 32 32">
    <path fill="#FF9C40" d="M28.105 10.076V8.638c0-1.278-1.118-2.237-2.397-2.237H6.054c-1.279 0-2.397 1.118-2.397 2.237v1.439c0 1.118 0 2.076 1.278 2.076h22.052c1.118 0 1.118-.958 1.118-2.077zM23.951 21.74h.32c0-1.278.48-2.397 1.438-3.355V14.39H6.054v10.386c0 1.279 1.119 2.237 2.397 2.237h10.706v-.639c0-2.556 2.078-4.634 4.794-4.634zm-4.474-.32h-7.35c-.64 0-1.12-.479-1.12-1.118 0-.64.48-1.119 1.12-1.119h7.51c.639 0 1.118.48 1.118 1.119 0 .64-.639 1.119-1.278 1.119z"/>
    <path fill="#FF9C40" d="M7.811 21.74h-.32c0-1.278-.479-2.397-1.438-3.355V14.39h19.655v10.386c0 1.279-1.118 2.237-2.397 2.237H12.605v-.639c0-2.556-2.077-4.634-4.794-4.634zm4.474-.32h7.35c.64 0 1.12-.479 1.12-1.118 0-.64-.48-1.119-1.12-1.119h-7.51c-.639 0-1.118.48-1.118 1.119 0 .64.64 1.119 1.278 1.119z"/>
</svg>
