<svg xmlns="http://www.w3.org/2000/svg" width="20" height="20" fill="none" viewBox="0 0 20 20">
    <g fill="#222B45" clip-path="url(#clip0)">
        <path d="M18.055 9.94c0-1.058-.86-1.919-1.918-1.919-.307 0-.596.073-.853.2-.26-.75-.975-1.29-1.813-1.29-.377 0-.728.11-1.025.298-.337-.553-.946-.923-1.64-.923-.265 0-.517.054-.747.151V4.163c0-1.02-.83-1.85-1.85-1.85s-1.85.83-1.85 1.85v5.97c-.369-.582-.941-.988-1.614-1.143-.678-.157-1.377-.04-1.967.33l-.557.35c-.263.164-.352.506-.202.778.024.045 2.49 4.528 3.492 6.672l.051.109c.403.833 1.034 1.534 1.826 2.025.786.488 1.693.746 2.621.746h2.971c1.336 0 2.595-.518 3.545-1.459.95-.94 1.479-2.194 1.492-3.53l.038-4.082v-.002-.988zM15.7 17.708c-.728.722-1.694 1.12-2.72 1.12h-2.97c-1.442 0-2.774-.829-3.393-2.11l-.045-.094c-.83-1.78-2.588-5.025-3.26-6.256l.088-.056c.325-.203.709-.267 1.082-.181.373.086.69.312.893.637l1.073 1.72c.138.222.407.325.658.253.251-.072.425-.302.425-.563V4.163c0-.374.304-.678.678-.678.374 0 .679.304.679.678v6.76c0 .324.262.587.586.587.323 0 .585-.263.585-.586v-2.7c0-.411.335-.746.747-.746s.747.335.747.746v2.7c0 .323.262.586.586.586.323 0 .586-.263.586-.586V8.849c0-.412.335-.747.746-.747.412 0 .747.335.747.747v2.075c0 .323.262.586.586.586.324 0 .586-.263.586-.586V9.94c0-.412.335-.747.747-.747s.747.335.747.747v.98L16.845 15c-.01 1.025-.416 1.987-1.145 2.709z"/>
        <path d="M4.488 4.873c.323 0 .585-.262.585-.586 0-1.718 1.398-3.115 3.116-3.115 1.718 0 3.116 1.397 3.116 3.115 0 .324.262.586.585.586.324 0 .586-.262.586-.586C12.476 1.923 10.553 0 8.19 0S3.902 1.923 3.902 4.287c0 .324.262.586.586.586z"/>
    </g>
    <defs>
        <clipPath id="clip0">
            <path fill="#fff" d="M0 0H20V20H0z"/>
        </clipPath>
    </defs>
</svg>
