<svg xmlns="http://www.w3.org/2000/svg" width="24" height="24" fill="none" viewBox="0 0 24 24">
    <path stroke="#2E3537" stroke-linecap="round" stroke-linejoin="round" stroke-width="1.1" d="M16.4 8.4c1.49 0 2.7-1.209 2.7-2.7S17.89 3 16.4 3c-1.491 0-2.7 1.209-2.7 2.7s1.209 2.7 2.7 2.7zM5.6 14.7c1.491 0 2.7-1.208 2.7-2.7 0-1.49-1.209-2.7-2.7-2.7S2.9 10.51 2.9 12c0 1.492 1.209 2.7 2.7 2.7zM16.4 21c1.49 0 2.7-1.21 2.7-2.7 0-1.492-1.21-2.7-2.7-2.7-1.491 0-2.7 1.208-2.7 2.7 0 1.49 1.209 2.7 2.7 2.7zM7.931 13.36l6.147 3.581M14.07 7.059L7.93 10.64"/>
</svg>
