<svg xmlns="http://www.w3.org/2000/svg" width="24" height="24" fill="none" viewBox="0 0 24 24">
    <path fill="#D8D8D8" stroke="#979797" d="M2.5 2.5H21.5V21.5H2.5z" opacity=".01"/>
    <path fill="#fff" fill-rule="evenodd" d="M18.257 6.472c.407.407.407 1.066 0 1.473l-4.42 4.42 4.42 4.42c.407.406.407 1.065 0 1.472-.407.407-1.066.407-1.473 0l-4.42-4.42-4.419 4.42c-.407.407-1.066.407-1.473 0-.407-.407-.407-1.066 0-1.473l4.42-4.42-4.42-4.419c-.407-.407-.407-1.066 0-1.473.407-.407 1.066-.407 1.473 0l4.42 4.42 4.419-4.42c.407-.407 1.066-.407 1.473 0z" clip-rule="evenodd"/>
</svg>
